<svg xmlns="http://www.w3.org/2000/svg" xmlns:xlink="http://www.w3.org/1999/xlink" width="80" zoomAndPan="magnify" viewBox="0 0 60 30.000001" height="40" preserveAspectRatio="xMidYMid meet" version="1.0"><defs><clipPath id="22d862c3bd"><path d="M 0.96875 0 L 59.03125 0 L 59.03125 29.03125 L 0.96875 29.03125 Z M 0.96875 0 " clip-rule="nonzero"/></clipPath><clipPath id="7828966598"><path d="M 21.160156 0 L 38 0 L 38 11 L 21.160156 11 Z M 21.160156 0 " clip-rule="nonzero"/></clipPath><clipPath id="7763f2db29"><path d="M 21.160156 0 L 38.578125 0 L 38.578125 29.03125 L 21.160156 29.03125 Z M 21.160156 0 " clip-rule="nonzero"/></clipPath><clipPath id="5f0072a158"><path d="M 21.160156 4 L 32 4 L 32 8 L 21.160156 8 Z M 21.160156 4 " clip-rule="nonzero"/></clipPath></defs><g clip-path="url(#22d862c3bd)"><path fill="#ffffff" d="M 0.96875 0 L 59.03125 0 L 59.03125 29.03125 L 0.96875 29.03125 Z M 0.96875 0 " fill-opacity="1" fill-rule="nonzero"/><path fill="#ffffff" d="M 0.96875 0 L 59.03125 0 L 59.03125 29.03125 L 0.96875 29.03125 Z M 0.96875 0 " fill-opacity="1" fill-rule="nonzero"/></g><path fill="#e4b2fe" d="M 31.421875 27.761719 C 31.328125 27.808594 31.234375 27.84375 31.148438 27.894531 L 27.347656 27.894531 L 27.347656 27.324219 L 25.660156 27.324219 L 25.660156 26.757812 L 25.101562 26.757812 L 25.101562 24.480469 L 24.539062 24.480469 L 24.539062 19.929688 L 23.976562 19.929688 L 23.976562 19.359375 L 24.300781 19.113281 L 23.976562 18.789062 L 23.976562 15.375 L 23.417969 15.375 L 23.417969 14.804688 L 23.773438 14.523438 L 23.417969 14.238281 L 23.417969 12.53125 C 23.414062 12.414062 23.464844 12.320312 23.574219 12.28125 C 25.070312 11.742188 26.703125 11.4375 28.261719 11.753906 C 29.019531 11.902344 29.734375 12.195312 30.484375 12.375 C 31.792969 12.691406 33.183594 12.664062 34.480469 12.304688 C 34.703125 12.238281 34.933594 12.164062 35.167969 12.183594 C 35.527344 12.207031 35.957031 12.582031 36.316406 12.535156 L 36.039062 12.914062 L 36.039062 13.957031 L 35.757812 15.382812 L 35.574219 15.632812 L 35.574219 16.074219 C 35.574219 16.074219 35.046875 16.996094 35.195312 17.53125 C 35.34375 18.0625 35.574219 19.503906 35.574219 19.503906 L 35.195312 19.9375 L 34.949219 20.339844 C 34.789062 20.628906 34.625 20.925781 34.464844 21.214844 C 34.402344 21.332031 34.332031 21.453125 34.308594 21.582031 C 34.253906 21.914062 34.464844 22.214844 34.609375 22.515625 C 34.824219 22.964844 34.898438 23.480469 34.820312 23.976562 C 34.800781 24.0625 34.785156 24.15625 34.722656 24.222656 C 34.648438 24.304688 34.535156 24.324219 34.4375 24.371094 C 34.144531 24.496094 33.984375 24.8125 33.886719 25.117188 C 33.789062 25.425781 33.726562 25.75 33.539062 26.007812 C 33.234375 26.417969 32.683594 26.546875 32.300781 26.890625 C 31.988281 27.144531 31.792969 27.5625 31.421875 27.761719 Z M 31.421875 27.761719 " fill-opacity="1" fill-rule="nonzero"/><path fill="#ebccff" d="M 25.101562 16.507812 L 25.660156 16.507812 L 25.660156 17.078125 L 25.101562 17.078125 Z M 32.953125 17.078125 L 33.515625 17.078125 L 33.515625 16.507812 L 32.953125 16.507812 Z M 23.417969 14.800781 L 23.976562 14.800781 L 23.976562 14.230469 L 23.417969 14.230469 Z M 34.074219 15.371094 L 34.636719 15.371094 L 34.636719 14.800781 L 34.074219 14.800781 Z M 28.464844 15.371094 L 29.023438 15.371094 L 29.023438 14.800781 L 28.464844 14.800781 Z M 35.757812 11.386719 L 35.757812 10.816406 L 35.195312 10.816406 L 35.195312 10.25 L 34.074219 10.25 L 34.074219 10.816406 L 31.273438 10.816406 L 31.273438 11.386719 L 28.46875 11.386719 L 28.46875 10.816406 L 25.660156 10.816406 L 25.660156 10.25 L 24.539062 10.25 L 24.539062 10.816406 L 23.976562 10.816406 L 23.976562 11.386719 L 23.417969 11.386719 L 23.417969 12.523438 L 23.976562 12.523438 L 23.976562 13.09375 L 24.539062 13.09375 L 24.539062 13.664062 L 25.101562 13.664062 L 25.101562 13.09375 L 25.660156 13.09375 L 25.660156 13.664062 L 28.464844 13.664062 L 28.464844 14.230469 L 31.265625 14.230469 L 31.265625 13.664062 L 34.070312 13.664062 L 34.070312 13.09375 L 35.75 13.09375 L 35.75 12.523438 L 36.3125 12.523438 L 36.3125 11.386719 Z M 25.660156 23.34375 L 25.660156 23.910156 L 26.222656 23.910156 L 26.222656 23.34375 Z M 31.273438 22.203125 L 31.273438 22.773438 L 31.832031 22.773438 L 31.832031 22.203125 Z M 29.03125 18.785156 L 29.03125 19.351562 L 29.589844 19.351562 L 29.589844 18.785156 Z M 23.976562 18.785156 L 23.976562 19.351562 L 24.539062 19.351562 L 24.539062 18.785156 Z M 23.976562 18.785156 " fill-opacity="1" fill-rule="nonzero"/><path fill="#ce9cef" d="M 36.316406 12.523438 L 36.316406 15.371094 L 35.757812 15.371094 L 35.757812 12.523438 Z M 35.195312 15.9375 L 34.636719 15.9375 L 34.636719 17.644531 L 34.074219 17.644531 L 34.074219 18.214844 L 34.636719 18.214844 L 34.636719 18.785156 L 35.195312 18.785156 L 35.195312 19.921875 L 35.757812 19.921875 L 35.757812 15.371094 L 35.195312 15.371094 Z M 34.636719 20.492188 L 33.515625 20.492188 L 33.515625 22.199219 L 34.074219 22.199219 L 34.074219 22.765625 L 34.636719 22.765625 L 34.636719 23.90625 L 34.074219 23.90625 L 34.074219 24.472656 L 32.953125 24.472656 L 32.953125 26.179688 L 31.832031 26.179688 L 31.832031 26.75 L 31.273438 26.75 L 31.273438 27.320312 L 30.152344 27.320312 L 30.152344 27.886719 L 32.394531 27.886719 L 32.394531 27.320312 L 34.074219 27.320312 L 34.074219 26.75 L 34.636719 26.75 L 34.636719 24.480469 L 35.195312 24.480469 L 35.195312 19.929688 L 34.636719 19.929688 Z M 34.636719 20.492188 " fill-opacity="1" fill-rule="nonzero"/><g clip-path="url(#7828966598)"><path fill="#be8cdb" d="M 38 6.828125 L 38 7.964844 L 37.441406 7.964844 L 37.441406 8.535156 L 36.878906 8.535156 L 36.878906 9.105469 L 34.074219 9.105469 L 34.074219 9.671875 L 31.558594 9.671875 C 31.457031 9.726562 31.359375 9.773438 31.273438 9.8125 L 31.273438 10.242188 L 30.375 10.242188 C 29.921875 10.417969 29.355469 10.609375 29.355469 10.609375 L 28.46875 10.242188 L 28.148438 9.957031 L 26.742188 10.023438 L 25.710938 9.695312 C 25.710938 9.695312 25.707031 9.683594 25.695312 9.671875 L 25.667969 9.671875 L 25.667969 9.640625 C 25.613281 9.574219 25.539062 9.480469 25.515625 9.445312 C 25.484375 9.390625 23.53125 9.445312 23.53125 9.445312 L 22.863281 9.105469 L 22.394531 8.941406 L 22.023438 8.390625 L 21.742188 7.964844 L 21.460938 7.398438 L 21.742188 6.828125 L 21.960938 6.542969 L 22.300781 6.257812 L 22.582031 6.015625 L 22.863281 5.691406 L 23.378906 5.40625 L 25.007812 5.488281 L 25.667969 5.121094 L 26.375 4.824219 L 27.949219 4.859375 L 28.46875 4.546875 L 30.144531 4.175781 L 31.273438 4.546875 L 31.832031 4.546875 L 31.832031 3.410156 L 32.394531 3.410156 L 32.394531 1.707031 L 32.953125 1.707031 L 32.953125 1.136719 L 33.726562 0.855469 L 33.9375 1.480469 L 33.8125 2.199219 L 33.515625 2.515625 L 33.515625 4.914062 L 34.195312 5.121094 L 34.636719 5.121094 L 34.636719 5.261719 L 35.609375 5.5625 C 35.804688 5.597656 35.964844 5.644531 36.101562 5.695312 L 36.878906 5.695312 L 36.878906 6.265625 L 37.441406 6.265625 L 37.441406 6.835938 L 38 6.835938 Z M 38 6.828125 " fill-opacity="1" fill-rule="nonzero"/></g><g clip-path="url(#7763f2db29)"><path fill="#9c69bc" d="M 34.636719 27.324219 L 35.195312 27.324219 L 35.195312 27.894531 L 34.074219 27.894531 L 34.074219 27.324219 Z M 31.273438 28.464844 L 27.347656 28.464844 L 27.347656 29.03125 L 32.394531 29.03125 L 32.394531 28.464844 Z M 36.878906 11.386719 L 36.878906 15.371094 L 37.441406 15.371094 L 37.441406 10.816406 L 36.878906 10.816406 Z M 35.195312 25.050781 L 35.195312 27.324219 L 35.757812 27.324219 L 35.757812 24.480469 L 35.195312 24.480469 Z M 36.316406 15.9375 L 36.316406 19.921875 L 36.878906 19.921875 L 36.878906 15.371094 L 36.316406 15.371094 Z M 35.757812 20.492188 L 35.757812 24.472656 L 36.316406 24.472656 L 36.316406 19.929688 L 35.757812 19.929688 Z M 32.953125 27.894531 L 32.394531 27.894531 L 32.394531 28.464844 L 34.074219 28.464844 L 34.074219 27.894531 Z M 27.902344 27.894531 L 30.144531 27.894531 L 30.144531 26.757812 L 29.585938 26.757812 L 29.585938 26.1875 L 28.464844 26.1875 L 28.464844 27.324219 L 27.902344 27.324219 L 27.902344 26.757812 L 27.34375 26.757812 L 27.34375 27.894531 L 25.660156 27.894531 L 25.660156 28.464844 L 27.34375 28.464844 L 27.34375 27.894531 Z M 22.855469 14.230469 L 22.855469 10.816406 L 22.296875 10.816406 L 22.296875 15.371094 L 22.855469 15.371094 Z M 21.734375 7.398438 L 22.015625 7.039062 L 22.296875 6.828125 L 22.578125 6.542969 L 22.855469 6.257812 L 23.316406 5.875 L 25.425781 5.875 L 25.660156 5.695312 L 26.804688 5.289062 L 28.285156 5.359375 L 28.464844 5.128906 L 29.652344 4.84375 L 31.054688 4.84375 L 31.273438 4.558594 L 31.273438 3.988281 L 28.46875 3.988281 L 28.46875 4.558594 L 25.660156 4.558594 L 25.660156 5.128906 L 22.855469 5.128906 L 22.855469 5.691406 L 22.296875 5.691406 L 22.296875 6.257812 L 21.734375 6.257812 L 21.734375 6.828125 L 21.175781 6.828125 L 21.175781 7.964844 L 21.734375 7.964844 Z M 22.296875 9.679688 L 22.296875 9.109375 L 22.855469 9.109375 L 22.855469 8.542969 L 22.296875 8.542969 L 22.296875 7.972656 L 21.734375 7.972656 L 21.734375 10.816406 L 22.296875 10.816406 Z M 23.417969 18.785156 L 23.417969 15.371094 L 22.855469 15.371094 L 22.855469 19.921875 L 23.417969 19.921875 Z M 25.101562 27.324219 L 24.539062 27.324219 L 24.539062 27.894531 L 25.660156 27.894531 L 25.660156 27.324219 Z M 24.539062 26.1875 L 24.539062 24.480469 L 23.976562 24.480469 L 23.976562 27.324219 L 24.539062 27.324219 Z M 23.976562 23.34375 L 23.976562 19.929688 L 23.417969 19.929688 L 23.417969 24.480469 L 23.976562 24.480469 Z M 25.660156 24.480469 L 25.101562 24.480469 L 25.101562 26.757812 L 26.222656 26.757812 L 26.222656 26.1875 L 26.78125 26.1875 L 26.78125 25.050781 L 26.222656 25.050781 L 26.222656 24.480469 Z M 28.46875 9.679688 L 25.660156 9.679688 L 25.660156 10.25 L 28.464844 10.25 L 28.464844 9.679688 Z M 25.101562 9.109375 L 22.855469 9.109375 L 22.855469 9.679688 L 25.660156 9.679688 L 25.660156 9.109375 Z M 26.78125 19.921875 L 26.222656 19.921875 L 26.222656 18.214844 L 25.660156 18.214844 L 25.660156 18.785156 L 25.101562 18.785156 L 25.101562 19.921875 L 25.660156 19.921875 L 25.660156 20.492188 L 26.78125 20.492188 Z M 27.34375 23.910156 L 27.34375 23.34375 L 26.78125 23.34375 L 26.78125 24.480469 L 27.34375 24.480469 Z M 24.539062 20.492188 L 24.539062 22.765625 L 25.660156 22.765625 L 25.660156 22.199219 L 26.222656 22.199219 L 26.222656 21.058594 L 25.660156 21.058594 L 25.660156 20.492188 Z M 29.03125 19.921875 L 29.03125 20.492188 L 28.46875 20.492188 L 28.46875 21.628906 L 29.03125 21.628906 L 29.03125 22.199219 L 30.710938 22.199219 L 30.710938 21.628906 L 31.273438 21.628906 L 31.273438 20.492188 L 30.710938 20.492188 L 30.710938 19.921875 Z M 27.902344 16.507812 L 27.902344 18.785156 L 28.464844 18.785156 L 28.464844 18.214844 L 29.023438 18.214844 L 29.023438 17.078125 L 28.464844 17.078125 L 28.464844 16.507812 Z M 35.757812 1.136719 L 34.824219 0.742188 L 35.195312 1.707031 L 35.757812 1.707031 Z M 38.5625 6.828125 L 38.5625 7.964844 L 38 7.964844 L 38 10.8125 L 37.441406 10.8125 L 37.441406 9.105469 L 36.878906 9.105469 L 36.878906 9.671875 L 34.074219 9.671875 L 34.074219 10.242188 L 31.273438 10.242188 L 31.273438 10.8125 L 28.46875 10.8125 L 28.46875 10.242188 L 29.589844 10.242188 L 29.589844 9.671875 L 30.710938 9.671875 L 30.710938 9.105469 L 31.832031 9.105469 L 31.832031 8.535156 L 32.953125 8.535156 L 32.953125 7.964844 L 34.074219 7.964844 L 34.074219 7.398438 L 34.636719 7.398438 L 34.636719 6.257812 L 34.074219 6.257812 L 34.074219 6.828125 L 33.515625 6.828125 L 33.515625 7.398438 L 31.832031 7.398438 L 31.832031 6.828125 L 31.273438 6.828125 L 31.273438 5.121094 L 31.832031 5.121094 L 31.832031 4.550781 L 32.394531 4.550781 L 32.394531 3.414062 L 32.953125 3.414062 L 32.953125 1.707031 L 33.515625 1.707031 L 33.824219 1.136719 L 34.363281 1.039062 L 34.5625 0.964844 L 34.871094 1.144531 L 35.195312 1.714844 L 35.195312 3.414062 L 34.636719 3.414062 L 34.636719 5.121094 L 34.824219 5.691406 L 35.757812 5.121094 L 36.878906 5.121094 L 36.878906 5.691406 L 37.441406 5.691406 L 37.441406 6.257812 L 38 6.257812 L 38 6.828125 Z M 34.636719 3.414062 Z M 32.394531 19.921875 L 32.953125 19.921875 L 32.953125 20.492188 L 34.636719 20.492188 L 34.636719 19.921875 L 35.195312 19.921875 L 35.195312 18.785156 L 34.636719 18.785156 L 34.636719 18.214844 L 32.953125 18.214844 L 32.953125 18.785156 L 32.394531 18.785156 Z M 29.589844 23.34375 L 29.03125 23.34375 L 29.03125 22.773438 L 27.910156 22.773438 L 27.910156 25.050781 L 29.03125 25.050781 L 29.03125 24.480469 L 29.589844 24.480469 Z M 31.273438 17.078125 L 30.152344 17.078125 L 30.152344 17.644531 L 29.589844 17.644531 L 29.589844 18.785156 L 30.152344 18.785156 L 30.152344 19.351562 L 31.832031 19.351562 L 31.832031 18.785156 L 32.394531 18.785156 L 32.394531 17.644531 L 31.832031 17.644531 L 31.832031 17.078125 Z M 32.394531 24.480469 L 34.074219 24.480469 L 34.074219 23.910156 L 34.636719 23.910156 L 34.636719 22.773438 L 34.074219 22.773438 L 34.074219 22.203125 L 32.394531 22.203125 L 32.394531 22.773438 L 31.832031 22.773438 L 31.832031 23.910156 L 32.394531 23.910156 Z M 30.710938 26.1875 L 31.832031 26.1875 L 31.832031 25.617188 L 32.394531 25.617188 L 32.394531 24.480469 L 31.832031 24.480469 L 31.832031 23.910156 L 30.152344 23.910156 L 30.152344 24.480469 L 29.589844 24.480469 L 29.589844 25.617188 L 30.152344 25.617188 L 30.152344 26.1875 Z M 30.710938 26.1875 " fill-opacity="1" fill-rule="nonzero"/></g><g clip-path="url(#5f0072a158)"><path fill="#c99ee8" d="M 31.273438 4.550781 L 31.273438 5.121094 L 28.46875 5.121094 L 28.46875 4.550781 Z M 27.34375 5.121094 L 25.660156 5.121094 L 25.660156 5.691406 L 28.464844 5.691406 L 28.464844 5.121094 Z M 24.539062 5.691406 L 22.855469 5.691406 L 22.855469 6.257812 L 25.660156 6.257812 L 25.660156 5.691406 Z M 22.296875 6.828125 L 22.855469 6.828125 L 22.855469 6.257812 L 22.296875 6.257812 Z M 21.734375 7.402344 L 22.296875 7.402344 L 22.296875 6.835938 L 21.734375 6.835938 Z M 21.734375 7.402344 " fill-opacity="1" fill-rule="nonzero"/></g><path fill="#f8eeff" d="M 37.441406 9.109375 L 37.441406 10.816406 L 36.878906 10.816406 L 36.878906 15.371094 L 36.316406 15.371094 L 36.316406 11.386719 L 35.757812 11.386719 L 35.757812 10.816406 L 35.195312 10.816406 L 35.195312 10.25 L 34.074219 10.25 L 34.074219 9.679688 L 36.878906 9.679688 L 36.878906 9.109375 Z M 35.757812 15.9375 L 35.757812 19.921875 L 36.316406 19.921875 L 36.316406 15.371094 L 35.757812 15.371094 Z M 35.195312 20.492188 L 35.195312 24.472656 L 35.757812 24.472656 L 35.757812 19.929688 L 35.195312 19.929688 Z M 34.636719 25.050781 L 34.636719 26.757812 L 34.074219 26.757812 L 34.074219 27.324219 L 35.195312 27.324219 L 35.195312 24.480469 L 34.636719 24.480469 Z M 32.953125 27.324219 L 32.394531 27.324219 L 32.394531 27.894531 L 34.074219 27.894531 L 34.074219 27.324219 Z M 32.394531 10.816406 L 34.074219 10.816406 L 34.074219 10.25 L 31.273438 10.25 L 31.273438 10.816406 Z M 31.273438 27.894531 L 27.347656 27.894531 L 27.347656 28.464844 L 32.394531 28.464844 L 32.394531 27.894531 Z M 29.03125 11.386719 L 31.273438 11.386719 L 31.273438 10.816406 L 28.46875 10.816406 L 28.46875 11.386719 Z M 26.78125 27.324219 L 25.660156 27.324219 L 25.660156 27.894531 L 27.34375 27.894531 L 27.34375 27.324219 Z M 25.101562 26.757812 L 25.101562 24.480469 L 24.539062 24.480469 L 24.539062 27.324219 L 25.660156 27.324219 L 25.660156 26.757812 Z M 24.539062 23.34375 L 24.539062 19.929688 L 23.976562 19.929688 L 23.976562 24.480469 L 24.539062 24.480469 Z M 23.976562 18.785156 L 23.976562 15.371094 L 23.417969 15.371094 L 23.417969 19.921875 L 23.976562 19.921875 Z M 23.417969 14.230469 L 23.417969 11.386719 L 23.976562 11.386719 L 23.976562 10.816406 L 24.539062 10.816406 L 24.539062 10.25 L 25.101562 10.25 L 25.101562 10.816406 L 25.660156 10.816406 L 25.660156 15.371094 L 26.222656 15.371094 L 26.222656 19.921875 L 26.78125 19.921875 L 26.78125 23.335938 L 27.34375 23.335938 L 27.34375 26.179688 L 27.902344 26.179688 L 27.902344 15.375 L 27.34375 15.375 L 27.34375 11.390625 L 27.902344 11.390625 L 27.902344 10.824219 L 28.464844 10.824219 L 28.464844 10.253906 L 25.660156 10.253906 L 25.660156 9.683594 L 22.855469 9.683594 L 22.855469 9.117188 L 22.296875 9.117188 L 22.296875 10.824219 L 22.855469 10.824219 L 22.855469 15.375 L 23.417969 15.375 Z M 27.902344 27.324219 L 28.464844 27.324219 L 28.464844 26.1875 L 27.902344 26.1875 Z M 27.902344 27.324219 " fill-opacity="1" fill-rule="nonzero"/><path fill="#8155a0" d="M 35.757812 0.570312 L 35.757812 1.136719 L 35.195312 1.136719 L 35.195312 1.707031 L 33.515625 1.707031 L 33.515625 1.136719 L 32.953125 1.136719 L 32.953125 0.570312 L 33.515625 0.570312 L 33.515625 0 L 35.195312 0 L 35.195312 0.570312 Z M 32.394531 6.828125 L 32.394531 7.398438 L 33.515625 7.398438 L 33.515625 6.828125 Z M 34.636719 5.121094 L 34.074219 5.121094 L 34.074219 6.257812 L 33.515625 6.257812 L 33.515625 6.828125 L 34.636719 6.828125 L 34.636719 6.257812 L 35.195312 6.257812 L 35.195312 5.691406 L 35.757812 5.691406 L 35.757812 5.121094 Z M 34.636719 5.121094 " fill-opacity="1" fill-rule="nonzero"/></svg>