<svg xmlns="http://www.w3.org/2000/svg" xmlns:xlink="http://www.w3.org/1999/xlink" width="80" zoomAndPan="magnify" viewBox="0 0 60 30.000001" height="40" preserveAspectRatio="xMidYMid meet" version="1.0"><defs><clipPath id="89a3affb01"><path d="M 0.96875 0 L 59.03125 0 L 59.03125 29.03125 L 0.96875 29.03125 Z M 0.96875 0 " clip-rule="nonzero"/></clipPath><clipPath id="864fa9023e"><path d="M 15.128906 21.03125 L 40.519531 21.03125 L 40.519531 29.03125 L 15.128906 29.03125 Z M 15.128906 21.03125 " clip-rule="nonzero"/></clipPath><clipPath id="468177d93f"><path d="M 44 3 L 46.054688 3 L 46.054688 20 L 44 20 Z M 44 3 " clip-rule="nonzero"/></clipPath><clipPath id="055eef0d86"><path d="M 40.421875 21.03125 L 46.054688 21.03125 L 46.054688 29.03125 L 40.421875 29.03125 Z M 40.421875 21.03125 " clip-rule="nonzero"/></clipPath></defs><g clip-path="url(#89a3affb01)"><path fill="#ffffff" d="M 0.96875 0 L 59.03125 0 L 59.03125 29.03125 L 0.96875 29.03125 Z M 0.96875 0 " fill-opacity="1" fill-rule="nonzero"/><path fill="#ffffff" d="M 0.96875 0 L 59.03125 0 L 59.03125 29.03125 L 0.96875 29.03125 Z M 0.96875 0 " fill-opacity="1" fill-rule="nonzero"/></g><path fill="#918267" d="M 19.28125 18.148438 L 19.28125 0.726562 L 17.820312 0.726562 L 17.820312 18.148438 L 19.28125 18.148438 " fill-opacity="1" fill-rule="nonzero"/><path fill="#918267" d="M 17.820312 0.726562 L 17.820312 18.148438 L 19.28125 18.148438 L 19.28125 0.726562 L 17.820312 0.726562 " fill-opacity="1" fill-rule="nonzero"/><path fill="#3e2426" d="M 36.066406 2.179688 L 36.0625 2.179688 L 36.0625 18.148438 Z M 36.066406 2.179688 " fill-opacity="1" fill-rule="nonzero"/><path fill="#3e2426" d="M 19.28125 18.148438 L 36.0625 18.148438 L 36.0625 2.179688 L 19.28125 2.179688 L 19.28125 18.148438 " fill-opacity="1" fill-rule="nonzero"/><path fill="#918267" d="M 24.386719 24.679688 L 24.390625 23.230469 L 17.820312 23.226562 L 17.820312 24.679688 L 24.386719 24.679688 " fill-opacity="1" fill-rule="nonzero"/><path fill="#918267" d="M 17.820312 23.230469 L 17.820312 24.679688 L 24.386719 24.679688 L 24.386719 23.230469 L 17.820312 23.230469 " fill-opacity="1" fill-rule="nonzero"/><path fill="#918267" d="M 25.847656 26.859375 L 25.847656 25.40625 L 17.820312 25.40625 L 17.820312 26.859375 L 25.847656 26.859375 " fill-opacity="1" fill-rule="nonzero"/><path fill="#918267" d="M 17.820312 25.40625 L 17.820312 26.859375 L 25.847656 26.859375 L 25.847656 25.40625 L 17.820312 25.40625 " fill-opacity="1" fill-rule="nonzero"/><path fill="#918267" d="M 31.683594 26.859375 L 31.6875 25.40625 L 30.226562 25.40625 L 30.226562 26.859375 L 31.683594 26.859375 " fill-opacity="1" fill-rule="nonzero"/><path fill="#918267" d="M 30.226562 25.40625 L 30.226562 26.859375 L 31.683594 26.859375 L 31.683594 25.40625 L 30.226562 25.40625 " fill-opacity="1" fill-rule="nonzero"/><path fill="#918267" d="M 31.683594 23.957031 L 31.6875 22.503906 L 30.226562 22.5 L 30.226562 23.957031 L 31.683594 23.957031 " fill-opacity="1" fill-rule="nonzero"/><path fill="#918267" d="M 30.226562 22.503906 L 30.226562 23.953125 L 31.683594 23.953125 L 31.683594 22.503906 L 30.226562 22.503906 " fill-opacity="1" fill-rule="nonzero"/><path fill="#918267" d="M 33.144531 25.40625 L 33.144531 23.953125 L 31.683594 23.953125 L 31.683594 25.40625 L 33.144531 25.40625 " fill-opacity="1" fill-rule="nonzero"/><path fill="#918267" d="M 31.683594 23.953125 L 31.683594 25.40625 L 33.144531 25.40625 L 33.144531 23.953125 L 31.683594 23.953125 " fill-opacity="1" fill-rule="nonzero"/><path fill="#918267" d="M 34.605469 26.859375 L 34.605469 25.40625 L 33.144531 25.40625 L 33.144531 26.859375 L 34.605469 26.859375 " fill-opacity="1" fill-rule="nonzero"/><path fill="#918267" d="M 33.144531 25.40625 L 33.144531 26.859375 L 34.605469 26.859375 L 34.605469 25.40625 L 33.144531 25.40625 " fill-opacity="1" fill-rule="nonzero"/><path fill="#918267" d="M 34.605469 23.957031 L 34.605469 22.503906 L 33.144531 22.5 L 33.144531 23.957031 L 34.605469 23.957031 " fill-opacity="1" fill-rule="nonzero"/><path fill="#918267" d="M 33.144531 22.503906 L 33.144531 23.953125 L 34.605469 23.953125 L 34.605469 22.503906 L 33.144531 22.503906 " fill-opacity="1" fill-rule="nonzero"/><path fill="#ffde59" d="M 34.605469 7.988281 L 34.605469 7.261719 L 33.875 7.257812 L 33.875 7.988281 L 34.605469 7.988281 " fill-opacity="1" fill-rule="nonzero"/><path fill="#ffde59" d="M 33.875 7.984375 L 34.605469 7.984375 L 34.605469 7.261719 L 33.875 7.261719 L 33.875 7.984375 " fill-opacity="1" fill-rule="nonzero"/><path fill="#ffde59" d="M 33.875 6.535156 L 33.875 5.808594 L 29.496094 5.808594 L 29.496094 6.535156 L 33.875 6.535156 " fill-opacity="1" fill-rule="nonzero"/><path fill="#ffde59" d="M 33.875 6.535156 L 33.875 5.808594 L 29.496094 5.808594 L 29.496094 6.535156 L 33.875 6.535156 " fill-opacity="1" fill-rule="nonzero"/><path fill="#ffde59" d="M 33.144531 7.988281 L 33.144531 7.261719 L 31.683594 7.257812 L 31.683594 7.988281 L 33.144531 7.988281 " fill-opacity="1" fill-rule="nonzero"/><path fill="#ffde59" d="M 31.683594 7.261719 L 31.683594 7.984375 L 33.144531 7.984375 L 33.144531 7.261719 L 31.683594 7.261719 " fill-opacity="1" fill-rule="nonzero"/><path fill="#ffde59" d="M 29.496094 7.988281 L 29.496094 7.261719 L 24.386719 7.257812 L 24.386719 7.988281 L 29.496094 7.988281 " fill-opacity="1" fill-rule="nonzero"/><path fill="#ffde59" d="M 29.496094 7.261719 L 24.386719 7.261719 L 24.386719 7.984375 L 29.496094 7.984375 L 29.496094 7.261719 " fill-opacity="1" fill-rule="nonzero"/><path fill="#ffde59" d="M 28.039062 10.164062 L 28.039062 9.4375 L 33.144531 9.4375 L 33.144531 8.710938 L 27.308594 8.710938 L 27.308594 9.4375 L 22.929688 9.4375 L 22.929688 10.164062 L 28.039062 10.164062 " fill-opacity="1" fill-rule="nonzero"/><path fill="#ffde59" d="M 33.144531 9.4375 L 33.144531 8.710938 L 27.308594 8.710938 L 27.308594 9.4375 L 22.929688 9.4375 L 22.929688 10.164062 L 28.039062 10.164062 L 28.039062 9.4375 L 33.144531 9.4375 " fill-opacity="1" fill-rule="nonzero"/><path fill="#ffde59" d="M 26.578125 12.339844 L 26.578125 11.613281 L 25.847656 11.613281 L 25.847656 12.339844 L 26.578125 12.339844 " fill-opacity="1" fill-rule="nonzero"/><path fill="#ffde59" d="M 26.578125 11.613281 L 25.847656 11.613281 L 25.847656 12.339844 L 26.578125 12.339844 L 26.578125 11.613281 " fill-opacity="1" fill-rule="nonzero"/><path fill="#ffde59" d="M 25.847656 11.617188 L 25.847656 10.890625 L 25.117188 10.886719 L 25.117188 11.617188 L 25.847656 11.617188 " fill-opacity="1" fill-rule="nonzero"/><path fill="#ffde59" d="M 25.117188 10.890625 L 25.117188 11.613281 L 25.847656 11.613281 L 25.847656 10.890625 L 25.117188 10.890625 " fill-opacity="1" fill-rule="nonzero"/><path fill="#ffde59" d="M 24.386719 11.617188 L 24.390625 10.890625 L 23.660156 10.886719 L 23.65625 11.617188 L 24.386719 11.617188 " fill-opacity="1" fill-rule="nonzero"/><path fill="#ffde59" d="M 23.660156 10.890625 L 23.660156 11.613281 L 24.386719 11.613281 L 24.386719 10.890625 L 23.660156 10.890625 " fill-opacity="1" fill-rule="nonzero"/><path fill="#ffde59" d="M 23.660156 12.339844 L 23.660156 11.613281 L 22.929688 11.613281 L 22.929688 12.339844 L 23.660156 12.339844 " fill-opacity="1" fill-rule="nonzero"/><path fill="#ffde59" d="M 23.660156 11.613281 L 22.929688 11.613281 L 22.929688 12.339844 L 23.660156 12.339844 L 23.660156 11.613281 " fill-opacity="1" fill-rule="nonzero"/><path fill="#ffde59" d="M 30.957031 7.988281 L 30.957031 7.261719 L 30.226562 7.257812 L 30.226562 7.988281 L 30.957031 7.988281 " fill-opacity="1" fill-rule="nonzero"/><path fill="#ffde59" d="M 30.957031 7.261719 L 30.226562 7.261719 L 30.226562 7.984375 L 30.957031 7.984375 L 30.957031 7.261719 " fill-opacity="1" fill-rule="nonzero"/><path fill="#ffde59" d="M 22.929688 7.988281 L 22.929688 7.261719 L 22.199219 7.257812 L 22.199219 7.988281 L 22.929688 7.988281 " fill-opacity="1" fill-rule="nonzero"/><path fill="#ffde59" d="M 22.929688 7.261719 L 22.199219 7.261719 L 22.199219 7.984375 L 22.929688 7.984375 L 22.929688 7.261719 " fill-opacity="1" fill-rule="nonzero"/><path fill="#ffde59" d="M 27.308594 6.535156 L 27.308594 5.808594 L 21.46875 5.808594 L 21.46875 6.535156 L 27.308594 6.535156 " fill-opacity="1" fill-rule="nonzero"/><path fill="#ffde59" d="M 21.46875 6.535156 L 27.308594 6.535156 L 27.308594 5.808594 L 21.46875 5.808594 L 21.46875 6.535156 " fill-opacity="1" fill-rule="nonzero"/><path fill="#ffde59" d="M 20.738281 19.601562 L 20.742188 18.148438 L 19.28125 18.148438 L 19.28125 19.601562 L 20.738281 19.601562 " fill-opacity="1" fill-rule="nonzero"/><path fill="#ffde59" d="M 19.28125 18.148438 L 19.28125 19.597656 L 20.738281 19.597656 L 20.738281 18.148438 L 19.28125 18.148438 " fill-opacity="1" fill-rule="nonzero"/><path fill="#ffde59" d="M 28.765625 11.617188 L 28.769531 10.890625 L 28.039062 10.886719 L 28.035156 11.617188 L 28.765625 11.617188 " fill-opacity="1" fill-rule="nonzero"/><path fill="#ffde59" d="M 28.039062 10.890625 L 28.039062 11.613281 L 28.765625 11.613281 L 28.765625 10.890625 L 28.039062 10.890625 " fill-opacity="1" fill-rule="nonzero"/><path fill="#ffde59" d="M 33.875 11.617188 L 33.875 10.890625 L 30.226562 10.886719 L 30.226562 11.617188 L 33.875 11.617188 " fill-opacity="1" fill-rule="nonzero"/><path fill="#ffde59" d="M 30.226562 10.890625 L 30.226562 11.613281 L 33.875 11.613281 L 33.875 10.890625 L 30.226562 10.890625 " fill-opacity="1" fill-rule="nonzero"/><path fill="#ffde59" d="M 28.039062 12.339844 L 28.039062 11.613281 L 27.308594 11.613281 L 27.308594 12.339844 L 28.039062 12.339844 " fill-opacity="1" fill-rule="nonzero"/><path fill="#ffde59" d="M 28.039062 11.613281 L 27.308594 11.613281 L 27.308594 12.339844 L 28.039062 12.339844 L 28.039062 11.613281 " fill-opacity="1" fill-rule="nonzero"/><path fill="#ffde59" d="M 22.929688 11.617188 L 22.929688 10.890625 L 22.199219 10.886719 L 22.199219 11.617188 L 22.929688 11.617188 " fill-opacity="1" fill-rule="nonzero"/><path fill="#ffde59" d="M 22.929688 10.890625 L 22.199219 10.890625 L 22.199219 11.613281 L 22.929688 11.613281 L 22.929688 10.890625 " fill-opacity="1" fill-rule="nonzero"/><path fill="#ffde59" d="M 21.46875 10.164062 L 21.472656 9.4375 L 20.738281 9.4375 L 20.738281 10.164062 L 21.46875 10.164062 " fill-opacity="1" fill-rule="nonzero"/><path fill="#ffde59" d="M 20.738281 10.164062 L 21.46875 10.164062 L 21.46875 9.4375 L 20.738281 9.4375 L 20.738281 10.164062 " fill-opacity="1" fill-rule="nonzero"/><path fill="#ffde59" d="M 25.117188 12.339844 L 25.121094 11.613281 L 24.386719 11.613281 L 24.386719 12.339844 L 25.117188 12.339844 " fill-opacity="1" fill-rule="nonzero"/><path fill="#ffde59" d="M 25.117188 11.613281 L 24.386719 11.613281 L 24.386719 12.339844 L 25.117188 12.339844 L 25.117188 11.613281 " fill-opacity="1" fill-rule="nonzero"/><path fill="#ffde59" d="M 27.308594 11.617188 L 27.308594 10.890625 L 26.578125 10.886719 L 26.578125 11.617188 L 27.308594 11.617188 " fill-opacity="1" fill-rule="nonzero"/><path fill="#ffde59" d="M 26.578125 10.890625 L 26.578125 11.613281 L 27.308594 11.613281 L 27.308594 10.890625 L 26.578125 10.890625 " fill-opacity="1" fill-rule="nonzero"/><path fill="#918267" d="M 36.0625 25.40625 L 36.066406 23.953125 L 34.605469 23.953125 L 34.605469 25.40625 L 36.0625 25.40625 " fill-opacity="1" fill-rule="nonzero"/><path fill="#918267" d="M 34.605469 23.953125 L 34.605469 25.40625 L 36.0625 25.40625 L 36.0625 23.953125 L 34.605469 23.953125 " fill-opacity="1" fill-rule="nonzero"/><path fill="#918267" d="M 36.0625 2.179688 L 36.066406 0.726562 L 19.28125 0.726562 L 19.28125 2.179688 L 36.0625 2.179688 " fill-opacity="1" fill-rule="nonzero"/><path fill="#918267" d="M 19.28125 0.726562 L 19.28125 2.179688 L 36.0625 2.179688 L 36.0625 0.726562 L 19.28125 0.726562 " fill-opacity="1" fill-rule="nonzero"/><path fill="#918267" d="M 37.523438 26.859375 L 37.523438 25.40625 L 36.0625 25.40625 L 36.0625 26.859375 L 37.523438 26.859375 " fill-opacity="1" fill-rule="nonzero"/><path fill="#918267" d="M 36.0625 25.40625 L 36.0625 26.859375 L 37.523438 26.859375 L 37.523438 25.40625 L 36.0625 25.40625 " fill-opacity="1" fill-rule="nonzero"/><path fill="#918267" d="M 37.523438 23.957031 L 37.523438 22.503906 L 36.0625 22.5 L 36.0625 23.957031 L 37.523438 23.957031 " fill-opacity="1" fill-rule="nonzero"/><path fill="#918267" d="M 36.0625 22.503906 L 36.0625 23.953125 L 37.523438 23.953125 L 37.523438 22.503906 L 36.0625 22.503906 " fill-opacity="1" fill-rule="nonzero"/><path fill="#3e2426" d="M 37.523438 21.050781 L 37.523438 19.597656 L 18.550781 19.597656 L 18.550781 21.050781 L 37.523438 21.050781 " fill-opacity="1" fill-rule="nonzero"/><path fill="#3e2426" d="M 18.550781 19.597656 L 18.550781 21.050781 L 37.523438 21.050781 L 37.523438 19.597656 L 18.550781 19.597656 " fill-opacity="1" fill-rule="nonzero"/><path fill="#f5e5c1" d="M 37.523438 18.148438 L 37.523438 0.726562 L 36.0625 0.726562 L 36.0625 18.148438 L 37.523438 18.148438 " fill-opacity="1" fill-rule="nonzero"/><path fill="#f5e5c1" d="M 36.0625 0.726562 L 36.0625 18.148438 L 37.523438 18.148438 L 37.523438 0.726562 L 36.0625 0.726562 " fill-opacity="1" fill-rule="nonzero"/><path fill="#918267" d="M 44.089844 21.050781 L 44.089844 19.597656 L 44.820312 19.601562 L 44.820312 3.628906 L 44.089844 3.628906 L 44.089844 0 L 38.253906 0 L 38.253906 19.597656 L 37.523438 19.597656 L 37.523438 21.050781 L 44.089844 21.050781 " fill-opacity="1" fill-rule="nonzero"/><path fill="#918267" d="M 37.523438 19.597656 L 37.523438 21.050781 L 44.089844 21.050781 L 44.089844 19.597656 L 44.820312 19.597656 L 44.820312 3.628906 L 44.089844 3.628906 L 44.089844 0 L 38.253906 0 L 38.253906 19.597656 L 37.523438 19.597656 " fill-opacity="1" fill-rule="nonzero"/><path fill="#d2c0a1" d="M 19.28125 19.601562 L 19.28125 18.148438 L 17.820312 18.148438 L 17.824219 0.726562 L 37.523438 0.730469 L 37.523438 18.148438 L 20.738281 18.148438 L 20.738281 19.597656 L 38.253906 19.601562 L 38.253906 0 L 16.363281 0 L 16.359375 19.601562 L 19.28125 19.601562 " fill-opacity="1" fill-rule="nonzero"/><path fill="#d2c0a1" d="M 16.363281 0 L 16.363281 19.597656 L 19.28125 19.597656 L 19.28125 18.148438 L 17.820312 18.148438 L 17.820312 0.726562 L 37.523438 0.726562 L 37.523438 18.148438 L 20.738281 18.148438 L 20.738281 19.597656 L 38.253906 19.597656 L 38.253906 0 L 16.363281 0 " fill-opacity="1" fill-rule="nonzero"/><g clip-path="url(#864fa9023e)"><path fill="#d2c0a1" d="M 30.226562 23.953125 L 30.226562 22.503906 L 31.683594 22.503906 L 31.683594 23.953125 Z M 37.523438 22.503906 L 37.523438 23.953125 L 36.0625 23.953125 L 36.066406 22.503906 Z M 24.386719 24.679688 L 17.820312 24.679688 L 17.824219 23.230469 L 24.386719 23.230469 Z M 37.523438 26.859375 L 30.226562 26.855469 L 30.226562 25.40625 L 31.683594 25.40625 L 31.6875 23.953125 L 33.144531 23.957031 L 33.144531 22.503906 L 34.605469 22.503906 L 34.605469 23.953125 L 36.0625 23.957031 L 36.0625 25.40625 L 37.523438 25.40625 Z M 25.847656 26.859375 L 17.820312 26.855469 L 17.824219 25.40625 L 25.847656 25.40625 Z M 40.441406 29.035156 L 40.441406 21.050781 L 14.902344 21.050781 L 14.902344 29.035156 L 40.441406 29.035156 " fill-opacity="1" fill-rule="nonzero"/><path fill="#d2c0a1" d="M 17.820312 24.679688 L 24.386719 24.679688 L 24.386719 23.230469 L 17.820312 23.230469 Z M 17.820312 26.859375 L 25.847656 26.859375 L 25.847656 25.40625 L 17.820312 25.40625 Z M 30.226562 23.953125 L 31.683594 23.953125 L 31.683594 25.40625 L 30.226562 25.40625 L 30.226562 26.859375 L 37.523438 26.859375 L 37.523438 25.40625 L 36.0625 25.40625 L 36.0625 23.953125 L 37.523438 23.953125 L 37.523438 22.503906 L 36.0625 22.503906 L 36.0625 23.953125 L 34.605469 23.953125 L 34.605469 22.503906 L 33.144531 22.503906 L 33.144531 23.953125 L 31.683594 23.953125 L 31.683594 22.503906 L 30.226562 22.503906 Z M 40.441406 21.050781 L 40.441406 29.035156 L 14.902344 29.035156 L 14.902344 21.050781 L 40.441406 21.050781 " fill-opacity="1" fill-rule="nonzero"/></g><path fill="#d2c0a1" d="M 33.144531 26.859375 L 33.144531 25.40625 L 31.683594 25.40625 L 31.683594 26.859375 L 33.144531 26.859375 " fill-opacity="1" fill-rule="nonzero"/><path fill="#d2c0a1" d="M 31.683594 25.40625 L 31.683594 26.859375 L 33.144531 26.859375 L 33.144531 25.40625 L 31.683594 25.40625 " fill-opacity="1" fill-rule="nonzero"/><path fill="#d2c0a1" d="M 36.0625 26.859375 L 36.066406 25.40625 L 34.605469 25.40625 L 34.605469 26.859375 L 36.0625 26.859375 " fill-opacity="1" fill-rule="nonzero"/><path fill="#d2c0a1" d="M 34.605469 25.40625 L 34.605469 26.859375 L 36.0625 26.859375 L 36.0625 25.40625 L 34.605469 25.40625 " fill-opacity="1" fill-rule="nonzero"/><path fill="#d2c0a1" d="M 34.605469 25.40625 L 34.605469 23.953125 L 33.144531 23.953125 L 33.144531 25.40625 L 34.605469 25.40625 " fill-opacity="1" fill-rule="nonzero"/><path fill="#d2c0a1" d="M 33.144531 23.953125 L 33.144531 25.40625 L 34.605469 25.40625 L 34.605469 23.953125 L 33.144531 23.953125 " fill-opacity="1" fill-rule="nonzero"/><g clip-path="url(#468177d93f)"><path fill="#918267" d="M 45.550781 19.601562 L 45.550781 18.148438 L 46.28125 18.148438 L 46.28125 5.082031 L 45.550781 5.082031 L 45.550781 3.628906 L 44.820312 3.628906 L 44.820312 19.601562 L 45.550781 19.601562 " fill-opacity="1" fill-rule="nonzero"/><path fill="#918267" d="M 44.820312 3.628906 L 44.820312 19.597656 L 45.550781 19.597656 L 45.550781 18.148438 L 46.28125 18.148438 L 46.28125 5.082031 L 45.550781 5.082031 L 45.550781 3.628906 L 44.820312 3.628906 " fill-opacity="1" fill-rule="nonzero"/></g><path fill="#3e2426" d="M 44.820312 19.601562 L 44.820312 3.628906 L 44.089844 3.628906 L 44.089844 19.601562 L 44.820312 19.601562 " fill-opacity="1" fill-rule="nonzero"/><path fill="#3e2426" d="M 44.089844 19.597656 L 44.820312 19.597656 L 44.820312 3.628906 L 44.089844 3.628906 L 44.089844 19.597656 " fill-opacity="1" fill-rule="nonzero"/><g clip-path="url(#055eef0d86)"><path fill="#3e2426" d="M 46.28125 29.035156 L 46.28125 21.050781 L 40.441406 21.050781 L 40.441406 29.035156 L 46.28125 29.035156 " fill-opacity="1" fill-rule="nonzero"/><path fill="#3e2426" d="M 40.441406 21.050781 L 40.441406 29.035156 L 46.28125 29.035156 L 46.28125 21.050781 L 40.441406 21.050781 " fill-opacity="1" fill-rule="nonzero"/></g><path fill="#3e2426" d="M 39.710938 13.429688 L 39.710938 14.519531 L 42.265625 14.519531 L 42.265625 13.429688 L 39.710938 13.429688 " fill-opacity="1" fill-rule="nonzero"/><path fill="#3e2426" d="M 39.710938 11.253906 L 39.710938 12.339844 L 42.265625 12.339844 L 42.265625 11.253906 L 39.710938 11.25 L 39.710938 11.253906 " fill-opacity="1" fill-rule="nonzero"/><path fill="#3e2426" d="M 39.710938 9.074219 L 39.710938 10.164062 L 42.265625 10.164062 L 42.265625 9.074219 L 39.710938 9.074219 " fill-opacity="1" fill-rule="nonzero"/><path fill="#3e2426" d="M 42.265625 7.984375 L 42.265625 6.898438 L 39.710938 6.894531 L 39.710938 7.988281 L 42.265625 7.988281 L 42.265625 7.984375 " fill-opacity="1" fill-rule="nonzero"/></svg>