<svg xmlns="http://www.w3.org/2000/svg" xmlns:xlink="http://www.w3.org/1999/xlink" width="80" zoomAndPan="magnify" viewBox="0 0 60 30.000001" height="40" preserveAspectRatio="xMidYMid meet" version="1.0"><defs><clipPath id="c03045e33d"><path d="M 0.96875 0 L 59.03125 0 L 59.03125 29.03125 L 0.96875 29.03125 Z M 0.96875 0 " clip-rule="nonzero"/></clipPath><clipPath id="07723c7c2f"><path d="M 40 9 L 42.230469 9 L 42.230469 11 L 40 11 Z M 40 9 " clip-rule="nonzero"/></clipPath><clipPath id="ce8ea6debb"><path d="M 36 2.902344 L 38 2.902344 L 38 5 L 36 5 Z M 36 2.902344 " clip-rule="nonzero"/></clipPath><clipPath id="82cbb14725"><path d="M 17.550781 20 L 19 20 L 19 22 L 17.550781 22 Z M 17.550781 20 " clip-rule="nonzero"/></clipPath><clipPath id="1bf60ee531"><path d="M 22 26 L 24 26 L 24 27.582031 L 22 27.582031 Z M 22 26 " clip-rule="nonzero"/></clipPath></defs><g clip-path="url(#c03045e33d)"><path fill="#ffffff" d="M 0.96875 0 L 59.03125 0 L 59.03125 29.03125 L 0.96875 29.03125 Z M 0.96875 0 " fill-opacity="1" fill-rule="nonzero"/><path fill="#ffffff" d="M 0.96875 0 L 59.03125 0 L 59.03125 29.03125 L 0.96875 29.03125 Z M 0.96875 0 " fill-opacity="1" fill-rule="nonzero"/></g><path fill="#f9ebaa" d="M 34.828125 7.839844 L 38.527344 7.839844 L 38.527344 11.539062 L 34.828125 11.539062 Z M 34.828125 7.839844 " fill-opacity="1" fill-rule="nonzero"/><path fill="#f9ebaa" d="M 21.253906 18.945312 L 24.957031 18.945312 L 24.957031 22.644531 L 21.253906 22.644531 Z M 21.253906 18.945312 " fill-opacity="1" fill-rule="nonzero"/><path fill="#f6db6e" d="M 37.292969 5.371094 L 36.058594 5.371094 L 36.058594 9.074219 L 33.59375 9.074219 L 33.59375 10.304688 L 36.058594 10.304688 L 36.058594 14.007812 L 37.292969 14.007812 L 37.292969 10.304688 L 39.761719 10.304688 L 39.761719 9.074219 L 37.292969 9.074219 Z M 37.292969 5.371094 " fill-opacity="1" fill-rule="nonzero"/><g clip-path="url(#07723c7c2f)"><path fill="#f6db6e" d="M 40.996094 9.074219 L 42.230469 9.074219 L 42.230469 10.304688 L 40.996094 10.304688 Z M 40.996094 9.074219 " fill-opacity="1" fill-rule="nonzero"/></g><path fill="#f6db6e" d="M 31.125 9.074219 L 32.359375 9.074219 L 32.359375 10.304688 L 31.125 10.304688 Z M 31.125 9.074219 " fill-opacity="1" fill-rule="nonzero"/><g clip-path="url(#ce8ea6debb)"><path fill="#f6db6e" d="M 36.058594 2.902344 L 37.292969 2.902344 L 37.292969 4.136719 L 36.058594 4.136719 Z M 36.058594 2.902344 " fill-opacity="1" fill-rule="nonzero"/></g><path fill="#f6db6e" d="M 36.058594 15.242188 L 37.292969 15.242188 L 37.292969 16.476562 L 36.058594 16.476562 Z M 36.058594 15.242188 " fill-opacity="1" fill-rule="nonzero"/><path fill="#f6db6e" d="M 23.722656 16.476562 L 22.488281 16.476562 L 22.488281 20.175781 L 20.019531 20.175781 L 20.019531 21.410156 L 22.488281 21.410156 L 22.488281 25.113281 L 23.722656 25.113281 L 23.722656 21.410156 L 26.191406 21.410156 L 26.191406 20.175781 L 23.722656 20.175781 Z M 23.722656 16.476562 " fill-opacity="1" fill-rule="nonzero"/><path fill="#f6db6e" d="M 27.421875 20.175781 L 28.65625 20.175781 L 28.65625 21.410156 L 27.421875 21.410156 Z M 27.421875 20.175781 " fill-opacity="1" fill-rule="nonzero"/><g clip-path="url(#82cbb14725)"><path fill="#f6db6e" d="M 17.550781 20.175781 L 18.785156 20.175781 L 18.785156 21.410156 L 17.550781 21.410156 Z M 17.550781 20.175781 " fill-opacity="1" fill-rule="nonzero"/></g><path fill="#f6db6e" d="M 22.488281 14.007812 L 23.722656 14.007812 L 23.722656 15.242188 L 22.488281 15.242188 Z M 22.488281 14.007812 " fill-opacity="1" fill-rule="nonzero"/><g clip-path="url(#1bf60ee531)"><path fill="#f6db6e" d="M 22.488281 26.347656 L 23.722656 26.347656 L 23.722656 27.582031 L 22.488281 27.582031 Z M 22.488281 26.347656 " fill-opacity="1" fill-rule="nonzero"/></g></svg>