<svg xmlns="http://www.w3.org/2000/svg" xmlns:xlink="http://www.w3.org/1999/xlink" width="80" zoomAndPan="magnify" viewBox="0 0 60 30.000001" height="40" preserveAspectRatio="xMidYMid meet" version="1.0"><defs><filter x="0%" y="0%" width="100%" height="100%" id="4b185d955d"><feColorMatrix values="0 0 0 0 1 0 0 0 0 1 0 0 0 0 1 0 0 0 1 0" color-interpolation-filters="sRGB"/></filter><clipPath id="dfb0f2de4d"><path d="M 0.96875 0 L 59.03125 0 L 59.03125 29.03125 L 0.96875 29.03125 Z M 0.96875 0 " clip-rule="nonzero"/></clipPath><clipPath id="fbd604b72f"><path d="M 21.40625 1.453125 L 41.003906 1.453125 L 41.003906 27.582031 L 21.40625 27.582031 Z M 21.40625 1.453125 " clip-rule="nonzero"/></clipPath><clipPath id="d1e4ec5c77"><path d="M 25 1.453125 L 27 1.453125 L 27 4 L 25 4 Z M 25 1.453125 " clip-rule="nonzero"/></clipPath><clipPath id="daa07fcc5b"><path d="M 24 1.453125 L 26 1.453125 L 26 3 L 24 3 Z M 24 1.453125 " clip-rule="nonzero"/></clipPath><clipPath id="629ea5e8a9"><path d="M 25 1.453125 L 27 1.453125 L 27 3 L 25 3 Z M 25 1.453125 " clip-rule="nonzero"/></clipPath><clipPath id="a473d4842e"><path d="M 26 1.453125 L 28 1.453125 L 28 3 L 26 3 Z M 26 1.453125 " clip-rule="nonzero"/></clipPath><clipPath id="761145ee51"><path d="M 22 24 L 30 24 L 30 27.582031 L 22 27.582031 Z M 22 24 " clip-rule="nonzero"/></clipPath><clipPath id="b19558d9df"><path d="M 21.40625 25 L 31 25 L 31 27.582031 L 21.40625 27.582031 Z M 21.40625 25 " clip-rule="nonzero"/></clipPath><clipPath id="54d34610ae"><path d="M 21.40625 25 L 23 25 L 23 27.582031 L 21.40625 27.582031 Z M 21.40625 25 " clip-rule="nonzero"/></clipPath><clipPath id="86d47d1753"><path d="M 22 3 L 31 3 L 31 27.582031 L 22 27.582031 Z M 22 3 " clip-rule="nonzero"/></clipPath><mask id="c8144b488e"><g filter="url(#4b185d955d)"><rect x="-6" width="72" fill="#000000" y="-3" height="36.000001" fill-opacity="0.5"/></g></mask><clipPath id="32886defad"><path d="M 2 0.484375 L 4 0.484375 L 4 3 L 2 3 Z M 2 0.484375 " clip-rule="nonzero"/></clipPath><clipPath id="9bda385f46"><path d="M 0.335938 20 L 8.929688 20 L 8.929688 24.582031 L 0.335938 24.582031 Z M 0.335938 20 " clip-rule="nonzero"/></clipPath><clipPath id="8bd0a7e6bf"><rect x="0" width="9" y="0" height="25"/></clipPath><clipPath id="a80af6ac1d"><path d="M 27 5 L 41.003906 5 L 41.003906 14 L 27 14 Z M 27 5 " clip-rule="nonzero"/></clipPath><mask id="b12ec4ce21"><g filter="url(#4b185d955d)"><rect x="-6" width="72" fill="#000000" y="-3" height="36.000001" fill-opacity="0.5"/></g></mask><clipPath id="89b0861403"><path d="M 0.625 0.503906 L 2 0.503906 L 2 7 L 0.625 7 Z M 0.625 0.503906 " clip-rule="nonzero"/></clipPath><clipPath id="c755ad6942"><rect x="0" width="3" y="0" height="8"/></clipPath><mask id="fe6032deed"><g filter="url(#4b185d955d)"><rect x="-6" width="72" fill="#000000" y="-3" height="36.000001" fill-opacity="0.5"/></g></mask><clipPath id="fe97086a50"><path d="M 0.675781 0.574219 L 1.839844 0.574219 L 1.839844 7 L 0.675781 7 Z M 0.675781 0.574219 " clip-rule="nonzero"/></clipPath><clipPath id="c8d8c54300"><rect x="0" width="2" y="0" height="8"/></clipPath><mask id="b57cb3d798"><g filter="url(#4b185d955d)"><rect x="-6" width="72" fill="#000000" y="-3" height="36.000001" fill-opacity="0.5"/></g></mask><clipPath id="f94598937a"><path d="M 0.878906 0.753906 L 2.039062 0.753906 L 2.039062 4 L 0.878906 4 Z M 0.878906 0.753906 " clip-rule="nonzero"/></clipPath><clipPath id="b5611b31bd"><rect x="0" width="3" y="0" height="5"/></clipPath><mask id="73ceff3b4e"><g filter="url(#4b185d955d)"><rect x="-6" width="72" fill="#000000" y="-3" height="36.000001" fill-opacity="0.5"/></g></mask><clipPath id="103e4d7bfa"><path d="M 1 0.683594 L 2.289062 0.683594 L 2.289062 3 L 1 3 Z M 1 0.683594 " clip-rule="nonzero"/></clipPath><clipPath id="3bad9364a1"><rect x="0" width="3" y="0" height="4"/></clipPath><mask id="b8466a7583"><g filter="url(#4b185d955d)"><rect x="-6" width="72" fill="#000000" y="-3" height="36.000001" fill-opacity="0.5"/></g></mask><clipPath id="3da31ca04d"><path d="M 1 0.753906 L 3.128906 0.753906 L 3.128906 1.917969 L 1 1.917969 Z M 1 0.753906 " clip-rule="nonzero"/></clipPath><clipPath id="830631adb6"><rect x="0" width="4" y="0" height="2"/></clipPath><mask id="e76c6e288e"><g filter="url(#4b185d955d)"><rect x="-6" width="72" fill="#000000" y="-3" height="36.000001" fill-opacity="0.5"/></g></mask><clipPath id="fd79ce59ff"><path d="M 0.605469 0.574219 L 3.859375 0.574219 L 3.859375 1.734375 L 0.605469 1.734375 Z M 0.605469 0.574219 " clip-rule="nonzero"/></clipPath><clipPath id="02e5234d49"><rect x="0" width="4" y="0" height="2"/></clipPath><mask id="4c936e502b"><g filter="url(#4b185d955d)"><rect x="-6" width="72" fill="#000000" y="-3" height="36.000001" fill-opacity="0.5"/></g></mask><clipPath id="7f7be8c909"><path d="M 0.785156 0.503906 L 3 0.503906 L 3 1.898438 L 0.785156 1.898438 Z M 0.785156 0.503906 " clip-rule="nonzero"/></clipPath><clipPath id="acf8110c23"><rect x="0" width="4" y="0" height="2"/></clipPath><mask id="b1a16985e1"><g filter="url(#4b185d955d)"><rect x="-6" width="72" fill="#000000" y="-3" height="36.000001" fill-opacity="0.25"/></g></mask><clipPath id="e86e43d54f"><path d="M 0.675781 0.683594 L 1.839844 0.683594 L 1.839844 2 L 0.675781 2 Z M 0.675781 0.683594 " clip-rule="nonzero"/></clipPath><clipPath id="401f89b434"><rect x="0" width="2" y="0" height="3"/></clipPath><mask id="a6ad51db7d"><g filter="url(#4b185d955d)"><rect x="-6" width="72" fill="#000000" y="-3" height="36.000001" fill-opacity="0.25"/></g></mask><clipPath id="251c9a5c55"><path d="M 0.769531 0.683594 L 1.929688 0.683594 L 1.929688 2 L 0.769531 2 Z M 0.769531 0.683594 " clip-rule="nonzero"/></clipPath><clipPath id="93b363a911"><rect x="0" width="2" y="0" height="3"/></clipPath><mask id="c8adcd8286"><g filter="url(#4b185d955d)"><rect x="-6" width="72" fill="#000000" y="-3" height="36.000001" fill-opacity="0.25"/></g></mask><clipPath id="890b38aaa4"><path d="M 0.605469 0.753906 L 1.769531 0.753906 L 1.769531 1.917969 L 0.605469 1.917969 Z M 0.605469 0.753906 " clip-rule="nonzero"/></clipPath><clipPath id="4e016a24a2"><rect x="0" width="2" y="0" height="2"/></clipPath><mask id="4f6b1e3004"><g filter="url(#4b185d955d)"><rect x="-6" width="72" fill="#000000" y="-3" height="36.000001" fill-opacity="0.25"/></g></mask><clipPath id="8045c9a6ab"><path d="M 0.695312 0.503906 L 1.859375 0.503906 L 1.859375 1.898438 L 0.695312 1.898438 Z M 0.695312 0.503906 " clip-rule="nonzero"/></clipPath><clipPath id="5b122049c0"><rect x="0" width="2" y="0" height="2"/></clipPath><mask id="ecff0ffdd5"><g filter="url(#4b185d955d)"><rect x="-6" width="72" fill="#000000" y="-3" height="36.000001" fill-opacity="0.25"/></g></mask><clipPath id="344fadcbbe"><path d="M 0.714844 0.664062 L 2 0.664062 L 2 1.824219 L 0.714844 1.824219 Z M 0.714844 0.664062 " clip-rule="nonzero"/></clipPath><clipPath id="8e6ddf666a"><rect x="0" width="3" y="0" height="2"/></clipPath><mask id="f95fb98256"><g filter="url(#4b185d955d)"><rect x="-6" width="72" fill="#000000" y="-3" height="36.000001" fill-opacity="0.25"/></g></mask><clipPath id="ae5a903c76"><path d="M 0.785156 0.84375 L 1.949219 0.84375 L 1.949219 2 L 0.785156 2 Z M 0.785156 0.84375 " clip-rule="nonzero"/></clipPath><clipPath id="237719a5fd"><rect x="0" width="2" y="0" height="3"/></clipPath><mask id="a803858e77"><g filter="url(#4b185d955d)"><rect x="-6" width="72" fill="#000000" y="-3" height="36.000001" fill-opacity="0.25"/></g></mask><clipPath id="0852371433"><path d="M 0.785156 0.753906 L 1.949219 0.753906 L 1.949219 1.917969 L 0.785156 1.917969 Z M 0.785156 0.753906 " clip-rule="nonzero"/></clipPath><clipPath id="5dbb737982"><rect x="0" width="2" y="0" height="2"/></clipPath><mask id="89b50693ad"><g filter="url(#4b185d955d)"><rect x="-6" width="72" fill="#000000" y="-3" height="36.000001" fill-opacity="0.25"/></g></mask><clipPath id="9d607e67f3"><path d="M 0.714844 0.683594 L 2 0.683594 L 2 2 L 0.714844 2 Z M 0.714844 0.683594 " clip-rule="nonzero"/></clipPath><clipPath id="466fa3c259"><rect x="0" width="3" y="0" height="3"/></clipPath><mask id="7614045654"><g filter="url(#4b185d955d)"><rect x="-6" width="72" fill="#000000" y="-3" height="36.000001" fill-opacity="0.25"/></g></mask><clipPath id="df71c7b692"><path d="M 1 0.84375 L 2.199219 0.84375 L 2.199219 2 L 1 2 Z M 1 0.84375 " clip-rule="nonzero"/></clipPath><clipPath id="6a6140b8b6"><rect x="0" width="3" y="0" height="3"/></clipPath><mask id="d7a85ff0c1"><g filter="url(#4b185d955d)"><rect x="-6" width="72" fill="#000000" y="-3" height="36.000001" fill-opacity="0.25"/></g></mask><clipPath id="b78bbee4d5"><path d="M 1 0.683594 L 2.128906 0.683594 L 2.128906 2 L 1 2 Z M 1 0.683594 " clip-rule="nonzero"/></clipPath><clipPath id="c480329943"><rect x="0" width="3" y="0" height="3"/></clipPath><mask id="9487674e24"><g filter="url(#4b185d955d)"><rect x="-6" width="72" fill="#000000" y="-3" height="36.000001" fill-opacity="0.25"/></g></mask><clipPath id="ac90496969"><path d="M 0.675781 0.59375 L 1.839844 0.59375 L 1.839844 1.988281 L 0.675781 1.988281 Z M 0.675781 0.59375 " clip-rule="nonzero"/></clipPath><clipPath id="0fdc158d42"><rect x="0" width="2" y="0" height="2"/></clipPath></defs><g clip-path="url(#dfb0f2de4d)"><path fill="#ffffff" d="M 0.96875 0 L 59.03125 0 L 59.03125 29.03125 L 0.96875 29.03125 Z M 0.96875 0 " fill-opacity="1" fill-rule="nonzero"/><path fill="#ffffff" d="M 0.96875 0 L 59.03125 0 L 59.03125 29.03125 L 0.96875 29.03125 Z M 0.96875 0 " fill-opacity="1" fill-rule="nonzero"/></g><g clip-path="url(#fbd604b72f)"><path fill="#8c52ff" d="M 40.21875 10.859375 L 38.128906 10.859375 L 38.128906 9.8125 L 34.992188 9.8125 L 34.992188 6.675781 L 31.859375 6.675781 L 31.859375 5.632812 L 28.722656 5.632812 L 28.722656 2.496094 L 27.675781 2.496094 L 27.675781 1.453125 L 24.542969 1.453125 L 24.542969 2.496094 L 23.496094 2.496094 L 23.496094 5.632812 L 24.542969 5.632812 L 24.542969 24.445312 L 22.453125 24.445312 L 22.453125 25.488281 L 21.40625 25.488281 L 21.40625 27.582031 L 30.8125 27.582031 L 30.8125 25.488281 L 29.765625 25.488281 L 29.765625 24.445312 L 27.675781 24.445312 L 27.675781 12.949219 L 31.859375 12.949219 L 31.859375 13.992188 L 38.128906 13.992188 L 38.128906 12.949219 L 40.21875 12.949219 L 40.21875 11.902344 L 41.265625 11.902344 L 41.265625 10.859375 Z M 40.21875 10.859375 " fill-opacity="1" fill-rule="nonzero"/></g><path fill="#8c52ff" d="M 24.542969 5.632812 L 25.585938 5.632812 L 25.585938 24.445312 L 24.542969 24.445312 Z M 24.542969 5.632812 " fill-opacity="1" fill-rule="nonzero"/><path fill="#8d95b5" d="M 25.585938 5.632812 L 26.632812 5.632812 L 26.632812 24.445312 L 25.585938 24.445312 Z M 25.585938 5.632812 " fill-opacity="1" fill-rule="nonzero"/><path fill="#b2b7cc" d="M 26.632812 5.632812 L 27.675781 5.632812 L 27.675781 24.445312 L 26.632812 24.445312 Z M 26.632812 5.632812 " fill-opacity="1" fill-rule="nonzero"/><path fill="#8c52ff" d="M 26.632812 23.398438 L 27.675781 23.398438 L 27.675781 24.445312 L 26.632812 24.445312 Z M 26.632812 23.398438 " fill-opacity="1" fill-rule="nonzero"/><path fill="#8c52ff" d="M 24.542969 22.355469 L 26.632812 22.355469 L 26.632812 23.398438 L 24.542969 23.398438 Z M 24.542969 22.355469 " fill-opacity="1" fill-rule="nonzero"/><path fill="#cad0db" d="M 26.632812 21.308594 L 27.675781 21.308594 L 27.675781 22.355469 L 26.632812 22.355469 Z M 26.632812 21.308594 " fill-opacity="1" fill-rule="nonzero"/><path fill="#cad0db" d="M 26.632812 19.21875 L 27.675781 19.21875 L 27.675781 20.265625 L 26.632812 20.265625 Z M 26.632812 19.21875 " fill-opacity="1" fill-rule="nonzero"/><path fill="#cad0db" d="M 26.632812 17.128906 L 27.675781 17.128906 L 27.675781 18.175781 L 26.632812 18.175781 Z M 26.632812 17.128906 " fill-opacity="1" fill-rule="nonzero"/><path fill="#cad0db" d="M 26.632812 15.039062 L 27.675781 15.039062 L 27.675781 16.082031 L 26.632812 16.082031 Z M 26.632812 15.039062 " fill-opacity="1" fill-rule="nonzero"/><path fill="#cad0db" d="M 26.632812 12.949219 L 27.675781 12.949219 L 27.675781 13.992188 L 26.632812 13.992188 Z M 26.632812 12.949219 " fill-opacity="1" fill-rule="nonzero"/><path fill="#cad0db" d="M 26.632812 10.859375 L 27.675781 10.859375 L 27.675781 11.902344 L 26.632812 11.902344 Z M 26.632812 10.859375 " fill-opacity="1" fill-rule="nonzero"/><path fill="#cad0db" d="M 26.632812 8.769531 L 27.675781 8.769531 L 27.675781 9.8125 L 26.632812 9.8125 Z M 26.632812 8.769531 " fill-opacity="1" fill-rule="nonzero"/><path fill="#cad0db" d="M 26.632812 6.675781 L 27.675781 6.675781 L 27.675781 7.722656 L 26.632812 7.722656 Z M 26.632812 6.675781 " fill-opacity="1" fill-rule="nonzero"/><path fill="#8d95b5" d="M 24.542969 2.496094 L 27.675781 2.496094 L 27.675781 5.632812 L 24.542969 5.632812 Z M 24.542969 2.496094 " fill-opacity="1" fill-rule="nonzero"/><g clip-path="url(#d1e4ec5c77)"><path fill="#8d95b5" d="M 25.585938 1.453125 L 26.632812 1.453125 L 26.632812 3.542969 L 25.585938 3.542969 Z M 25.585938 1.453125 " fill-opacity="1" fill-rule="nonzero"/></g><path fill="#8c52ff" d="M 23.496094 2.496094 L 24.542969 2.496094 L 24.542969 5.632812 L 23.496094 5.632812 Z M 23.496094 2.496094 " fill-opacity="1" fill-rule="nonzero"/><g clip-path="url(#daa07fcc5b)"><path fill="#8c52ff" d="M 24.542969 1.453125 L 25.585938 1.453125 L 25.585938 2.496094 L 24.542969 2.496094 Z M 24.542969 1.453125 " fill-opacity="1" fill-rule="nonzero"/></g><g clip-path="url(#629ea5e8a9)"><path fill="#8c52ff" d="M 25.585938 1.453125 L 26.632812 1.453125 L 26.632812 2.496094 L 25.585938 2.496094 Z M 25.585938 1.453125 " fill-opacity="1" fill-rule="nonzero"/></g><g clip-path="url(#a473d4842e)"><path fill="#8c52ff" d="M 26.632812 1.453125 L 27.675781 1.453125 L 27.675781 2.496094 L 26.632812 2.496094 Z M 26.632812 1.453125 " fill-opacity="1" fill-rule="nonzero"/></g><path fill="#b2b7cc" d="M 27.675781 2.496094 L 28.722656 2.496094 L 28.722656 5.632812 L 27.675781 5.632812 Z M 27.675781 2.496094 " fill-opacity="1" fill-rule="nonzero"/><path fill="#cad0db" d="M 25.585938 2.496094 L 25.585938 3.542969 L 26.632812 3.542969 L 26.632812 4.585938 L 27.675781 4.585938 L 27.675781 2.496094 Z M 25.585938 2.496094 " fill-opacity="1" fill-rule="nonzero"/><g clip-path="url(#761145ee51)"><path fill="#8d95b5" d="M 22.453125 24.445312 L 29.765625 24.445312 L 29.765625 27.582031 L 22.453125 27.582031 Z M 22.453125 24.445312 " fill-opacity="1" fill-rule="nonzero"/></g><g clip-path="url(#b19558d9df)"><path fill="#8d95b5" d="M 21.40625 25.488281 L 30.8125 25.488281 L 30.8125 27.582031 L 21.40625 27.582031 Z M 21.40625 25.488281 " fill-opacity="1" fill-rule="nonzero"/></g><path fill="#8c52ff" d="M 22.453125 24.445312 L 24.542969 24.445312 L 24.542969 25.488281 L 22.453125 25.488281 Z M 22.453125 24.445312 " fill-opacity="1" fill-rule="nonzero"/><g clip-path="url(#54d34610ae)"><path fill="#8c52ff" d="M 21.40625 25.488281 L 22.453125 25.488281 L 22.453125 27.582031 L 21.40625 27.582031 Z M 21.40625 25.488281 " fill-opacity="1" fill-rule="nonzero"/></g><g clip-path="url(#86d47d1753)"><g mask="url(#c8144b488e)"><g transform="matrix(1, 0, 0, 1, 22, 3)"><g clip-path="url(#8bd0a7e6bf)"><path fill="#8c52ff" d="M 3.585938 2.632812 L 5.675781 2.632812 L 5.675781 3.675781 L 3.585938 3.675781 Z M 3.585938 2.632812 " fill-opacity="1" fill-rule="nonzero"/><g clip-path="url(#32886defad)"><path fill="#8c52ff" d="M 3.585938 1.585938 L 3.585938 0.542969 L 2.542969 0.542969 L 2.542969 2.632812 L 3.585938 2.632812 Z M 3.585938 1.585938 " fill-opacity="1" fill-rule="nonzero"/></g><path fill="#8c52ff" d="M 3.585938 15.175781 L 4.632812 15.175781 L 4.632812 16.21875 L 3.585938 16.21875 Z M 3.585938 15.175781 " fill-opacity="1" fill-rule="nonzero"/><path fill="#8c52ff" d="M 3.585938 17.265625 L 4.632812 17.265625 L 4.632812 18.308594 L 3.585938 18.308594 Z M 3.585938 17.265625 " fill-opacity="1" fill-rule="nonzero"/><path fill="#8c52ff" d="M 5.675781 1.585938 L 6.722656 1.585938 L 6.722656 2.632812 L 5.675781 2.632812 Z M 5.675781 1.585938 " fill-opacity="1" fill-rule="nonzero"/><g clip-path="url(#9bda385f46)"><path fill="#8c52ff" d="M 5.675781 23.535156 L 5.675781 22.488281 L 4.632812 22.488281 L 4.632812 23.535156 L 3.585938 23.535156 L 3.585938 22.488281 L 4.632812 22.488281 L 4.632812 20.398438 L 3.585938 20.398438 L 3.585938 21.445312 L 2.542969 21.445312 L 2.542969 23.535156 L 1.496094 23.535156 L 1.496094 22.488281 L 0.453125 22.488281 L 0.453125 24.582031 L 8.8125 24.582031 L 8.8125 23.535156 Z M 5.675781 23.535156 " fill-opacity="1" fill-rule="nonzero"/></g></g></g></g></g><path fill="#cad0db" d="M 27.675781 24.445312 L 29.765625 24.445312 L 29.765625 25.488281 L 27.675781 25.488281 Z M 27.675781 24.445312 " fill-opacity="1" fill-rule="nonzero"/><path fill="#cad0db" d="M 29.765625 25.488281 L 30.8125 25.488281 L 30.8125 26.535156 L 29.765625 26.535156 Z M 29.765625 25.488281 " fill-opacity="1" fill-rule="nonzero"/><g clip-path="url(#a80af6ac1d)"><path fill="#cb6ce6" d="M 40.21875 10.859375 L 38.128906 10.859375 L 38.128906 9.8125 L 34.992188 9.8125 L 34.992188 6.675781 L 31.859375 6.675781 L 31.859375 5.632812 L 27.675781 5.632812 L 27.675781 12.949219 L 31.859375 12.949219 L 31.859375 13.992188 L 38.128906 13.992188 L 38.128906 12.949219 L 40.21875 12.949219 L 40.21875 11.902344 L 41.265625 11.902344 L 41.265625 10.859375 Z M 40.21875 10.859375 " fill-opacity="1" fill-rule="nonzero"/></g><path fill="#8c52ff" d="M 27.675781 11.902344 L 31.859375 11.902344 L 31.859375 12.949219 L 27.675781 12.949219 Z M 27.675781 11.902344 " fill-opacity="1" fill-rule="nonzero"/><path fill="#8c52ff" d="M 31.859375 12.949219 L 38.128906 12.949219 L 38.128906 13.992188 L 31.859375 13.992188 Z M 31.859375 12.949219 " fill-opacity="1" fill-rule="nonzero"/><g mask="url(#b12ec4ce21)"><g transform="matrix(1, 0, 0, 1, 31, 6)"><g clip-path="url(#c755ad6942)"><g clip-path="url(#89b0861403)"><path fill="#8c52ff" d="M 0.859375 0.675781 L 1.902344 0.675781 L 1.902344 6.949219 L 0.859375 6.949219 Z M 0.859375 0.675781 " fill-opacity="1" fill-rule="nonzero"/></g></g></g></g><g mask="url(#fe6032deed)"><g transform="matrix(1, 0, 0, 1, 27, 5)"><g clip-path="url(#c8d8c54300)"><g clip-path="url(#fe97086a50)"><path fill="#8c52ff" d="M 0.675781 0.632812 L 1.722656 0.632812 L 1.722656 6.902344 L 0.675781 6.902344 Z M 0.675781 0.632812 " fill-opacity="1" fill-rule="nonzero"/></g></g></g></g><g mask="url(#b57cb3d798)"><g transform="matrix(1, 0, 0, 1, 34, 9)"><g clip-path="url(#b5611b31bd)"><g clip-path="url(#f94598937a)"><path fill="#8c52ff" d="M 0.992188 0.8125 L 2.039062 0.8125 L 2.039062 3.949219 L 0.992188 3.949219 Z M 0.992188 0.8125 " fill-opacity="1" fill-rule="nonzero"/></g></g></g></g><g mask="url(#73ceff3b4e)"><g transform="matrix(1, 0, 0, 1, 37, 10)"><g clip-path="url(#3bad9364a1)"><g clip-path="url(#103e4d7bfa)"><path fill="#8c52ff" d="M 1.128906 0.859375 L 2.171875 0.859375 L 2.171875 2.949219 L 1.128906 2.949219 Z M 1.128906 0.859375 " fill-opacity="1" fill-rule="nonzero"/></g></g></g></g><g mask="url(#b8466a7583)"><g transform="matrix(1, 0, 0, 1, 35, 9)"><g clip-path="url(#830631adb6)"><g clip-path="url(#3da31ca04d)"><path fill="#cad0db" d="M 1.039062 0.8125 L 3.128906 0.8125 L 3.128906 1.859375 L 1.039062 1.859375 Z M 1.039062 0.8125 " fill-opacity="1" fill-rule="nonzero"/></g></g></g></g><g mask="url(#e76c6e288e)"><g transform="matrix(1, 0, 0, 1, 28, 5)"><g clip-path="url(#02e5234d49)"><g clip-path="url(#fd79ce59ff)"><path fill="#cad0db" d="M 0.722656 0.632812 L 3.859375 0.632812 L 3.859375 1.675781 L 0.722656 1.675781 Z M 0.722656 0.632812 " fill-opacity="1" fill-rule="nonzero"/></g></g></g></g><g mask="url(#4c936e502b)"><g transform="matrix(1, 0, 0, 1, 32, 6)"><g clip-path="url(#acf8110c23)"><g clip-path="url(#7f7be8c909)"><path fill="#cad0db" d="M 0.902344 0.675781 L 2.992188 0.675781 L 2.992188 1.722656 L 0.902344 1.722656 Z M 0.902344 0.675781 " fill-opacity="1" fill-rule="nonzero"/></g></g></g></g><g mask="url(#b1a16985e1)"><g transform="matrix(1, 0, 0, 1, 27, 10)"><g clip-path="url(#401f89b434)"><g clip-path="url(#e86e43d54f)"><path fill="#8c52ff" d="M 0.675781 0.859375 L 1.722656 0.859375 L 1.722656 1.902344 L 0.675781 1.902344 Z M 0.675781 0.859375 " fill-opacity="1" fill-rule="nonzero"/></g></g></g></g><g mask="url(#a6ad51db7d)"><g transform="matrix(1, 0, 0, 1, 29, 10)"><g clip-path="url(#93b363a911)"><g clip-path="url(#251c9a5c55)"><path fill="#8c52ff" d="M 0.765625 0.859375 L 1.8125 0.859375 L 1.8125 1.902344 L 0.765625 1.902344 Z M 0.765625 0.859375 " fill-opacity="1" fill-rule="nonzero"/></g></g></g></g><g mask="url(#c8adcd8286)"><g transform="matrix(1, 0, 0, 1, 28, 9)"><g clip-path="url(#4e016a24a2)"><g clip-path="url(#890b38aaa4)"><path fill="#8c52ff" d="M 0.722656 0.8125 L 1.765625 0.8125 L 1.765625 1.859375 L 0.722656 1.859375 Z M 0.722656 0.8125 " fill-opacity="1" fill-rule="nonzero"/></g></g></g></g><g mask="url(#4f6b1e3004)"><g transform="matrix(1, 0, 0, 1, 30, 6)"><g clip-path="url(#5b122049c0)"><g clip-path="url(#8045c9a6ab)"><path fill="#8c52ff" d="M 0.8125 0.675781 L 1.859375 0.675781 L 1.859375 1.722656 L 0.8125 1.722656 Z M 0.8125 0.675781 " fill-opacity="1" fill-rule="nonzero"/></g></g></g></g><g mask="url(#ecff0ffdd5)"><g transform="matrix(1, 0, 0, 1, 33, 7)"><g clip-path="url(#8e6ddf666a)"><g clip-path="url(#344fadcbbe)"><path fill="#8c52ff" d="M 0.949219 0.722656 L 1.992188 0.722656 L 1.992188 1.769531 L 0.949219 1.769531 Z M 0.949219 0.722656 " fill-opacity="1" fill-rule="nonzero"/></g></g></g></g><g mask="url(#f95fb98256)"><g transform="matrix(1, 0, 0, 1, 32, 11)"><g clip-path="url(#237719a5fd)"><g clip-path="url(#ae5a903c76)"><path fill="#8c52ff" d="M 0.902344 0.902344 L 1.949219 0.902344 L 1.949219 1.949219 L 0.902344 1.949219 Z M 0.902344 0.902344 " fill-opacity="1" fill-rule="nonzero"/></g></g></g></g><g mask="url(#a803858e77)"><g transform="matrix(1, 0, 0, 1, 32, 9)"><g clip-path="url(#5dbb737982)"><g clip-path="url(#0852371433)"><path fill="#8c52ff" d="M 0.902344 0.8125 L 1.949219 0.8125 L 1.949219 1.859375 L 0.902344 1.859375 Z M 0.902344 0.8125 " fill-opacity="1" fill-rule="nonzero"/></g></g></g></g><g mask="url(#89b50693ad)"><g transform="matrix(1, 0, 0, 1, 33, 10)"><g clip-path="url(#466fa3c259)"><g clip-path="url(#9d607e67f3)"><path fill="#8c52ff" d="M 0.949219 0.859375 L 1.992188 0.859375 L 1.992188 1.902344 L 0.949219 1.902344 Z M 0.949219 0.859375 " fill-opacity="1" fill-rule="nonzero"/></g></g></g></g><g mask="url(#7614045654)"><g transform="matrix(1, 0, 0, 1, 35, 11)"><g clip-path="url(#6a6140b8b6)"><g clip-path="url(#df71c7b692)"><path fill="#8c52ff" d="M 1.039062 0.902344 L 2.082031 0.902344 L 2.082031 1.949219 L 1.039062 1.949219 Z M 1.039062 0.902344 " fill-opacity="1" fill-rule="nonzero"/></g></g></g></g><g mask="url(#d7a85ff0c1)"><g transform="matrix(1, 0, 0, 1, 36, 10)"><g clip-path="url(#c480329943)"><g clip-path="url(#b78bbee4d5)"><path fill="#8c52ff" d="M 1.082031 0.859375 L 2.128906 0.859375 L 2.128906 1.902344 L 1.082031 1.902344 Z M 1.082031 0.859375 " fill-opacity="1" fill-rule="nonzero"/></g></g></g></g><g mask="url(#9487674e24)"><g transform="matrix(1, 0, 0, 1, 27, 8)"><g clip-path="url(#0fdc158d42)"><g clip-path="url(#ac90496969)"><path fill="#8c52ff" d="M 0.675781 0.769531 L 1.722656 0.769531 L 1.722656 1.8125 L 0.675781 1.8125 Z M 0.675781 0.769531 " fill-opacity="1" fill-rule="nonzero"/></g></g></g></g></svg>