<svg xmlns="http://www.w3.org/2000/svg" xmlns:xlink="http://www.w3.org/1999/xlink" width="80" zoomAndPan="magnify" viewBox="0 0 60 30.000001" height="40" preserveAspectRatio="xMidYMid meet" version="1.0"><defs><clipPath id="ac265ff3b7"><path d="M 0.96875 0 L 59.03125 0 L 59.03125 29.03125 L 0.96875 29.03125 Z M 0.96875 0 " clip-rule="nonzero"/></clipPath><clipPath id="8f04ce72a7"><path d="M 17.140625 3 L 42.546875 3 L 42.546875 26.855469 L 17.140625 26.855469 Z M 17.140625 3 " clip-rule="nonzero"/></clipPath><clipPath id="59830604c1"><path d="M 17.140625 2.902344 L 42.546875 2.902344 L 42.546875 26.855469 L 17.140625 26.855469 Z M 17.140625 2.902344 " clip-rule="nonzero"/></clipPath></defs><g clip-path="url(#ac265ff3b7)"><path fill="#ffffff" d="M 0.96875 0 L 59.03125 0 L 59.03125 29.03125 L 0.96875 29.03125 Z M 0.96875 0 " fill-opacity="1" fill-rule="nonzero"/><path fill="#ffffff" d="M 0.96875 0 L 59.03125 0 L 59.03125 29.03125 L 0.96875 29.03125 Z M 0.96875 0 " fill-opacity="1" fill-rule="nonzero"/></g><g clip-path="url(#8f04ce72a7)"><path fill="#f6f6ee" d="M 42.234375 18.949219 L 41.914062 21.964844 L 40.925781 25.136719 L 40.195312 25.875 L 31.601562 26.054688 L 18.765625 25.59375 L 18.429688 24.679688 L 17.621094 24.679688 L 17.621094 23.988281 L 18.535156 21.792969 L 19.222656 19.636719 L 19.453125 15.878906 L 19.910156 5.652344 L 20.761719 5.195312 L 27.015625 4.277344 L 34.121094 3.820312 L 35.496094 4.507812 L 39.414062 4.507812 L 41.535156 5.195312 L 42.144531 7.640625 Z M 42.234375 18.949219 " fill-opacity="1" fill-rule="nonzero"/></g><path fill="#ffde59" d="M 36.1875 4.507812 L 35.5 4.507812 L 34.8125 3.964844 L 26.558594 3.820312 L 25.675781 4.738281 L 25.414062 5.34375 L 25.871094 5.652344 L 25.871094 4.738281 L 27.246094 4.738281 L 27.246094 5.652344 L 25.871094 5.652344 L 26.789062 7.945312 L 35.039062 7.488281 L 36.058594 5.566406 L 36.324219 4.738281 Z M 28.625 5.195312 L 28.625 5.652344 L 27.25 5.652344 L 27.25 4.738281 L 28.625 4.738281 Z M 28.625 5.195312 " fill-opacity="1" fill-rule="nonzero"/><g clip-path="url(#59830604c1)"><path fill="#090d0f" d="M 42.832031 18.488281 L 42.832031 8.863281 L 42.375 8.863281 L 42.375 4.738281 L 41.535156 4.738281 L 41.535156 4.277344 L 35.957031 4.277344 L 35.957031 3.363281 L 34.121094 3.363281 L 34.121094 2.902344 L 33.207031 2.902344 L 33.207031 3.363281 L 25.871094 3.363281 L 25.871094 4.277344 L 20.371094 4.277344 L 20.371094 5.195312 L 19.453125 5.195312 L 19.453125 13.90625 L 18.996094 13.90625 L 18.996094 18.03125 L 18.535156 18.03125 L 18.535156 20.78125 L 18.078125 20.78125 L 18.078125 22.15625 L 17.621094 22.15625 L 17.621094 23.53125 L 17.160156 23.53125 L 17.160156 24.90625 L 18.078125 24.90625 L 18.078125 25.824219 L 18.996094 25.824219 L 18.996094 26.742188 L 36.875 26.742188 L 36.875 26.28125 L 37.789062 26.28125 L 37.789062 26.742188 L 41 26.742188 L 41 25.367188 L 41.457031 25.367188 L 41.457031 23.992188 L 41.917969 23.992188 L 41.917969 22.613281 L 42.375 22.613281 L 42.375 19.863281 L 42.832031 19.863281 Z M 41.917969 18.949219 L 41.914062 18.949219 L 41.914062 19.863281 L 41.457031 19.863281 L 41.457031 22.613281 L 41 22.613281 L 41 23.992188 L 40.539062 23.992188 L 40.539062 25.367188 L 37.789062 25.367188 L 37.789062 24.90625 L 36.871094 24.90625 L 36.871094 25.367188 L 18.996094 25.367188 L 18.996094 24.449219 L 18.078125 24.449219 L 18.078125 23.53125 L 18.535156 23.53125 L 18.535156 22.15625 L 18.996094 22.15625 L 18.996094 20.78125 L 19.453125 20.78125 L 19.453125 18.03125 L 19.910156 18.03125 L 19.910156 13.90625 L 20.371094 13.90625 L 20.371094 5.652344 L 25.871094 5.652344 L 25.871094 8.40625 L 35.957031 8.40625 L 35.957031 5.652344 L 35.039062 5.652344 L 35.039062 7.027344 L 26.789062 7.027344 L 26.789062 5.652344 L 25.949219 5.652344 L 25.949219 4.738281 L 33.207031 4.738281 L 33.207031 4.277344 L 34.121094 4.277344 L 34.121094 4.738281 L 35.957031 4.738281 L 35.957031 5.652344 L 41.457031 5.652344 L 41.457031 8.863281 L 41.914062 8.863281 L 41.914062 18.488281 L 41.917969 18.488281 Z M 35.039062 12.988281 L 35.039062 13.445312 L 34.121094 13.445312 L 34.121094 12.988281 Z M 34.121094 14.363281 L 34.121094 14.820312 L 33.664062 14.820312 L 33.664062 14.363281 Z M 35.039062 13.445312 L 35.496094 13.445312 L 35.496094 15.28125 L 34.121094 15.28125 L 34.121094 14.820312 L 35.039062 14.820312 L 35.039062 14.363281 L 34.121094 14.363281 L 34.121094 13.90625 L 35.039062 13.90625 Z M 31.832031 14.363281 L 31.832031 14.820312 L 31.371094 14.820312 L 31.371094 13.445312 L 31.832031 13.445312 Z M 32.289062 13.445312 L 31.832031 13.445312 L 31.832031 12.988281 L 32.746094 12.988281 L 32.746094 13.445312 Z M 32.746094 13.90625 L 32.746094 13.445312 L 33.207031 13.445312 L 33.207031 13.90625 Z M 32.289062 14.820312 L 32.746094 14.820312 L 32.746094 15.28125 L 31.832031 15.28125 L 31.832031 14.820312 Z M 33.207031 14.820312 L 32.746094 14.820312 L 32.746094 14.363281 L 33.207031 14.363281 Z M 37.332031 12.988281 L 37.332031 13.445312 L 36.414062 13.445312 L 36.414062 15.28125 L 35.957031 15.28125 L 35.957031 12.988281 Z M 37.332031 13.445312 L 37.789062 13.445312 L 37.789062 15.28125 L 37.332031 15.28125 Z M 26.328125 14.363281 L 26.328125 14.820312 L 25.871094 14.820312 L 25.871094 13.445312 L 26.328125 13.445312 Z M 26.789062 13.445312 L 26.328125 13.445312 L 26.328125 12.988281 L 27.246094 12.988281 L 27.246094 13.445312 Z M 27.246094 13.90625 L 27.246094 13.445312 L 27.703125 13.445312 L 27.703125 14.820312 L 27.246094 14.820312 Z M 26.328125 15.28125 L 26.328125 14.820312 L 27.246094 14.820312 L 27.246094 15.28125 Z M 27.246094 18.949219 L 27.246094 19.40625 L 26.789062 19.40625 L 26.789062 18.03125 L 27.246094 18.03125 Z M 28.164062 16.65625 L 28.621094 16.65625 L 28.621094 19.863281 L 27.246094 19.863281 L 27.246094 19.40625 L 28.164062 19.40625 L 28.164062 18.03125 L 27.246094 18.03125 L 27.246094 17.570312 L 28.164062 17.570312 Z M 32.289062 17.113281 L 32.746094 17.113281 L 32.746094 17.574219 L 32.289062 17.574219 Z M 32.289062 18.03125 L 32.746094 18.03125 L 32.746094 19.863281 L 32.289062 19.863281 Z M 29.539062 18.949219 L 29.539062 19.40625 L 29.078125 19.40625 L 29.078125 18.03125 L 29.539062 18.03125 Z M 29.996094 18.03125 L 29.539062 18.03125 L 29.539062 17.570312 L 30.457031 17.570312 L 30.457031 18.03125 Z M 30.457031 18.03125 L 30.914062 18.03125 L 30.914062 19.40625 L 30.457031 19.40625 Z M 29.996094 19.40625 L 30.457031 19.40625 L 30.457031 19.863281 L 29.539062 19.863281 L 29.539062 19.40625 Z M 34.582031 17.570312 L 35.039062 17.570312 L 35.039062 18.03125 L 34.121094 18.03125 L 34.121094 19.40625 L 33.664062 19.40625 L 33.664062 18.03125 L 33.207031 18.03125 L 33.207031 17.570312 L 33.664062 17.570312 L 33.664062 16.65625 L 34.121094 16.65625 L 34.121094 17.570312 Z M 34.121094 19.863281 L 34.121094 19.40625 L 35.039062 19.40625 L 35.039062 19.863281 Z M 28.621094 14.363281 L 28.621094 14.820312 L 28.164062 14.820312 L 28.164062 12.988281 L 28.621094 12.988281 Z M 28.621094 15.28125 L 28.621094 14.820312 L 29.539062 14.820312 L 29.539062 12.988281 L 29.996094 12.988281 L 29.996094 15.28125 Z M 24.039062 14.820312 L 23.578125 14.820312 L 23.578125 12.988281 L 24.039062 12.988281 Z M 24.953125 12.988281 L 25.414062 12.988281 L 25.414062 16.199219 L 24.953125 16.199219 L 24.953125 15.28125 L 24.050781 15.28125 L 24.050781 14.820312 L 24.953125 14.820312 Z M 24.496094 16.199219 L 24.953125 16.199219 L 24.953125 16.65625 L 24.039062 16.65625 L 24.039062 16.199219 Z M 24.039062 15.738281 L 24.039062 16.199219 L 23.578125 16.199219 L 23.578125 15.738281 Z M 24.039062 15.738281 " fill-opacity="1" fill-rule="nonzero"/></g></svg>