<svg xmlns="http://www.w3.org/2000/svg" xmlns:xlink="http://www.w3.org/1999/xlink" width="80" zoomAndPan="magnify" viewBox="0 0 60 30.000001" height="40" preserveAspectRatio="xMidYMid meet" version="1.0"><defs><clipPath id="ef5b6c4e5a"><path d="M 5.734375 5.167969 L 54.363281 5.167969 L 54.363281 21.859375 L 5.734375 21.859375 Z M 5.734375 5.167969 " clip-rule="nonzero"/></clipPath><clipPath id="cd21048470"><path d="M 27 5.167969 L 29 5.167969 L 29 7 L 27 7 Z M 27 5.167969 " clip-rule="nonzero"/></clipPath><clipPath id="b89e2bffac"><path d="M 5.734375 11 L 54 11 L 54 21.859375 L 5.734375 21.859375 Z M 5.734375 11 " clip-rule="nonzero"/></clipPath><clipPath id="e5bc3a23c2"><path d="M 14 19 L 16 19 L 16 21.859375 L 14 21.859375 Z M 14 19 " clip-rule="nonzero"/></clipPath><clipPath id="f7c400d668"><path d="M 52 18 L 54.363281 18 L 54.363281 20 L 52 20 Z M 52 18 " clip-rule="nonzero"/></clipPath><clipPath id="82fc2c85f7"><path d="M 28 5.167969 L 31 5.167969 L 31 7 L 28 7 Z M 28 5.167969 " clip-rule="nonzero"/></clipPath><clipPath id="8a852f08ea"><path d="M 52 17 L 54.363281 17 L 54.363281 19 L 52 19 Z M 52 17 " clip-rule="nonzero"/></clipPath><clipPath id="8c1287958e"><path d="M 31 5.167969 L 33 5.167969 L 33 7 L 31 7 Z M 31 5.167969 " clip-rule="nonzero"/></clipPath><clipPath id="4584ea8b35"><path d="M 30 5.167969 L 32 5.167969 L 32 6 L 30 6 Z M 30 5.167969 " clip-rule="nonzero"/></clipPath></defs><g clip-path="url(#ef5b6c4e5a)"><path fill="#ff999a" d="M 53.570312 18.066406 L 53.570312 17.308594 L 52.800781 17.308594 L 52.800781 16.546875 L 51.257812 16.546875 L 51.257812 15.789062 L 47.402344 15.789062 L 47.402344 16.546875 L 45.859375 16.546875 L 45.859375 15.03125 L 45.085938 15.03125 L 45.085938 14.273438 L 44.316406 14.273438 L 44.316406 13.511719 L 43.546875 13.511719 L 43.546875 12.753906 L 39.6875 12.753906 L 39.6875 11.238281 L 38.917969 11.238281 L 38.917969 9.71875 L 38.144531 9.71875 L 38.144531 8.960938 L 37.375 8.960938 L 37.375 8.203125 L 36.605469 8.203125 L 36.605469 7.441406 L 33.519531 7.441406 L 33.519531 6.683594 L 32.746094 6.683594 L 32.746094 5.925781 L 31.976562 5.925781 L 31.976562 5.167969 L 28.890625 5.167969 L 28.890625 5.925781 L 27.347656 5.925781 L 27.347656 6.683594 L 23.492188 6.683594 L 23.492188 7.441406 L 22.722656 7.441406 L 22.722656 8.203125 L 21.949219 8.203125 L 21.949219 8.960938 L 21.179688 8.960938 L 21.179688 11.996094 L 20.40625 11.996094 L 20.40625 12.753906 L 19.636719 12.753906 L 19.636719 14.273438 L 18.867188 14.273438 L 18.867188 13.511719 L 16.550781 13.511719 L 16.550781 14.273438 L 15.78125 14.273438 L 15.78125 15.03125 L 15.007812 15.03125 L 15.007812 15.789062 L 14.238281 15.789062 L 14.238281 17.308594 L 12.695312 17.308594 L 12.695312 18.066406 L 11.152344 18.066406 L 11.152344 18.824219 L 10.382812 18.824219 L 10.382812 18.066406 L 8.066406 18.066406 L 8.066406 18.824219 L 6.527344 18.824219 L 6.527344 19.582031 L 5.753906 19.582031 L 5.753906 21.101562 L 6.527344 21.101562 L 6.527344 21.859375 L 52.800781 21.859375 L 52.800781 21.101562 L 53.570312 21.101562 L 53.570312 19.582031 L 54.34375 19.582031 L 54.34375 18.066406 Z M 53.570312 18.066406 " fill-opacity="1" fill-rule="nonzero"/></g><path fill="#5561d3" d="M 27.347656 8.960938 L 27.347656 6.683594 L 26.578125 6.683594 L 26.578125 8.203125 L 25.804688 8.203125 L 25.804688 10.476562 L 26.578125 10.476562 L 26.578125 8.960938 Z M 27.347656 8.960938 " fill-opacity="1" fill-rule="nonzero"/><g clip-path="url(#cd21048470)"><path fill="#5561d3" d="M 27.347656 5.925781 L 28.890625 5.925781 L 28.890625 6.683594 L 27.347656 6.683594 Z M 27.347656 5.925781 " fill-opacity="1" fill-rule="nonzero"/></g><path fill="#5561d3" d="M 26.578125 10.476562 L 27.347656 10.476562 L 27.347656 11.996094 L 26.578125 11.996094 Z M 26.578125 10.476562 " fill-opacity="1" fill-rule="nonzero"/><path fill="#5561d3" d="M 29.664062 13.511719 L 29.664062 12.753906 L 28.890625 12.753906 L 28.890625 11.996094 L 27.347656 11.996094 L 27.347656 12.753906 L 28.121094 12.753906 L 28.121094 13.511719 L 28.890625 13.511719 L 28.890625 14.273438 L 30.433594 14.273438 L 30.433594 13.511719 Z M 29.664062 13.511719 " fill-opacity="1" fill-rule="nonzero"/><path fill="#5561d3" d="M 32.746094 7.441406 L 34.289062 7.441406 L 34.289062 8.203125 L 32.746094 8.203125 Z M 32.746094 7.441406 " fill-opacity="1" fill-rule="nonzero"/><path fill="#5561d3" d="M 31.976562 8.203125 L 32.746094 8.203125 L 32.746094 8.960938 L 31.976562 8.960938 Z M 31.976562 8.203125 " fill-opacity="1" fill-rule="nonzero"/><path fill="#5561d3" d="M 31.207031 8.960938 L 31.976562 8.960938 L 31.976562 11.238281 L 31.207031 11.238281 Z M 31.207031 8.960938 " fill-opacity="1" fill-rule="nonzero"/><path fill="#5561d3" d="M 31.976562 11.238281 L 32.746094 11.238281 L 32.746094 12.753906 L 31.976562 12.753906 Z M 31.976562 11.238281 " fill-opacity="1" fill-rule="nonzero"/><path fill="#5561d3" d="M 32.746094 12.753906 L 33.519531 12.753906 L 33.519531 13.511719 L 32.746094 13.511719 Z M 32.746094 12.753906 " fill-opacity="1" fill-rule="nonzero"/><path fill="#5561d3" d="M 33.519531 13.511719 L 35.0625 13.511719 L 35.0625 14.273438 L 33.519531 14.273438 Z M 33.519531 13.511719 " fill-opacity="1" fill-rule="nonzero"/><path fill="#5561d3" d="M 35.0625 14.273438 L 36.605469 14.273438 L 36.605469 15.03125 L 35.0625 15.03125 Z M 35.0625 14.273438 " fill-opacity="1" fill-rule="nonzero"/><path fill="#5561d3" d="M 36.605469 13.511719 L 38.144531 13.511719 L 38.144531 14.273438 L 36.605469 14.273438 Z M 36.605469 13.511719 " fill-opacity="1" fill-rule="nonzero"/><g clip-path="url(#b89e2bffac)"><path fill="#5561d3" d="M 52.027344 19.582031 L 52.027344 20.34375 L 50.488281 20.34375 L 50.488281 19.582031 L 48.945312 19.582031 L 48.945312 18.824219 L 47.402344 18.824219 L 47.402344 18.066406 L 46.628906 18.066406 L 46.628906 16.546875 L 45.085938 16.546875 L 45.085938 17.308594 L 42.003906 17.308594 L 42.003906 18.066406 L 38.144531 18.066406 L 38.144531 17.308594 L 35.832031 17.308594 L 35.832031 16.546875 L 33.519531 16.546875 L 33.519531 15.789062 L 32.746094 15.789062 L 32.746094 15.03125 L 33.519531 15.03125 L 33.519531 14.273438 L 30.433594 14.273438 L 30.433594 15.03125 L 31.207031 15.03125 L 31.207031 15.789062 L 31.976562 15.789062 L 31.976562 16.546875 L 30.433594 16.546875 L 30.433594 17.308594 L 25.035156 17.308594 L 25.035156 16.546875 L 23.492188 16.546875 L 23.492188 15.789062 L 21.949219 15.789062 L 21.949219 15.03125 L 20.40625 15.03125 L 20.40625 13.511719 L 21.179688 13.511719 L 21.179688 11.996094 L 20.40625 11.996094 L 20.40625 12.753906 L 19.636719 12.753906 L 19.636719 15.789062 L 20.40625 15.789062 L 20.40625 16.546875 L 21.179688 16.546875 L 21.179688 17.308594 L 19.636719 17.308594 L 19.636719 18.066406 L 18.867188 18.066406 L 18.867188 19.582031 L 17.324219 19.582031 L 17.324219 18.824219 L 16.550781 18.824219 L 16.550781 18.066406 L 15.78125 18.066406 L 15.78125 17.308594 L 15.007812 17.308594 L 15.007812 15.789062 L 14.238281 15.789062 L 14.238281 17.308594 L 13.464844 17.308594 L 13.464844 18.824219 L 12.695312 18.824219 L 12.695312 19.582031 L 11.925781 19.582031 L 11.925781 20.34375 L 7.296875 20.34375 L 7.296875 18.824219 L 6.527344 18.824219 L 6.527344 19.582031 L 5.753906 19.582031 L 5.753906 21.101562 L 6.527344 21.101562 L 6.527344 21.859375 L 52.800781 21.859375 L 52.800781 21.101562 L 53.570312 21.101562 L 53.570312 19.582031 Z M 52.027344 19.582031 " fill-opacity="1" fill-rule="nonzero"/></g><path fill="#8e68e6" d="M 8.066406 18.824219 L 7.296875 18.824219 L 7.296875 20.34375 L 11.925781 20.34375 L 11.925781 19.582031 L 8.066406 19.582031 Z M 8.066406 18.824219 " fill-opacity="1" fill-rule="nonzero"/><path fill="#8e68e6" d="M 12.695312 17.308594 L 13.464844 17.308594 L 13.464844 18.824219 L 12.695312 18.824219 Z M 12.695312 17.308594 " fill-opacity="1" fill-rule="nonzero"/><path fill="#8e68e6" d="M 15.78125 16.546875 L 15.78125 15.03125 L 15.007812 15.03125 L 15.007812 17.308594 L 15.78125 17.308594 L 15.78125 18.066406 L 16.550781 18.066406 L 16.550781 16.546875 Z M 15.78125 16.546875 " fill-opacity="1" fill-rule="nonzero"/><path fill="#8e68e6" d="M 16.550781 18.066406 L 16.550781 18.824219 L 17.324219 18.824219 L 17.324219 19.582031 L 18.867188 19.582031 L 18.867188 18.066406 Z M 16.550781 18.066406 " fill-opacity="1" fill-rule="nonzero"/><path fill="#8e68e6" d="M 22.722656 15.03125 L 22.722656 14.273438 L 21.949219 14.273438 L 21.949219 11.238281 L 21.179688 11.238281 L 21.179688 13.511719 L 20.40625 13.511719 L 20.40625 15.03125 L 21.949219 15.03125 L 21.949219 15.789062 L 23.492188 15.789062 L 23.492188 15.03125 Z M 22.722656 15.03125 " fill-opacity="1" fill-rule="nonzero"/><path fill="#8e68e6" d="M 25.035156 15.789062 L 23.492188 15.789062 L 23.492188 17.308594 L 25.035156 17.308594 L 25.035156 18.066406 L 30.433594 18.066406 L 30.433594 16.546875 L 25.035156 16.546875 Z M 25.035156 15.789062 " fill-opacity="1" fill-rule="nonzero"/><path fill="#8e68e6" d="M 30.433594 15.789062 L 31.976562 15.789062 L 31.976562 16.546875 L 30.433594 16.546875 Z M 30.433594 15.789062 " fill-opacity="1" fill-rule="nonzero"/><path fill="#8e68e6" d="M 28.121094 18.824219 L 28.890625 18.824219 L 28.890625 19.582031 L 28.121094 19.582031 Z M 28.121094 18.824219 " fill-opacity="1" fill-rule="nonzero"/><path fill="#8e68e6" d="M 31.207031 17.308594 L 32.746094 17.308594 L 32.746094 18.824219 L 31.207031 18.824219 Z M 31.207031 17.308594 " fill-opacity="1" fill-rule="nonzero"/><path fill="#8e68e6" d="M 20.40625 18.066406 L 21.949219 18.066406 L 21.949219 19.582031 L 20.40625 19.582031 Z M 20.40625 18.066406 " fill-opacity="1" fill-rule="nonzero"/><path fill="#8e68e6" d="M 14.238281 18.066406 L 15.007812 18.066406 L 15.007812 18.824219 L 14.238281 18.824219 Z M 14.238281 18.066406 " fill-opacity="1" fill-rule="nonzero"/><path fill="#8e68e6" d="M 12.695312 19.582031 L 13.464844 19.582031 L 13.464844 20.34375 L 12.695312 20.34375 Z M 12.695312 19.582031 " fill-opacity="1" fill-rule="nonzero"/><g clip-path="url(#e5bc3a23c2)"><path fill="#8e68e6" d="M 14.238281 19.582031 L 15.78125 19.582031 L 15.78125 21.101562 L 14.238281 21.101562 Z M 14.238281 19.582031 " fill-opacity="1" fill-rule="nonzero"/></g><path fill="#8e68e6" d="M 24.265625 18.066406 L 23.492188 18.066406 L 23.492188 19.582031 L 27.347656 19.582031 L 27.347656 18.824219 L 24.265625 18.824219 Z M 24.265625 18.066406 " fill-opacity="1" fill-rule="nonzero"/><path fill="#8e68e6" d="M 35.832031 18.066406 L 37.375 18.066406 L 37.375 18.824219 L 35.832031 18.824219 Z M 35.832031 18.066406 " fill-opacity="1" fill-rule="nonzero"/><path fill="#8e68e6" d="M 34.289062 15.789062 L 34.289062 14.273438 L 33.519531 14.273438 L 33.519531 15.03125 L 32.746094 15.03125 L 32.746094 15.789062 L 33.519531 15.789062 L 33.519531 16.546875 L 35.832031 16.546875 L 35.832031 15.789062 Z M 34.289062 15.789062 " fill-opacity="1" fill-rule="nonzero"/><path fill="#8e68e6" d="M 26.578125 8.960938 L 27.347656 8.960938 L 27.347656 10.476562 L 26.578125 10.476562 Z M 26.578125 8.960938 " fill-opacity="1" fill-rule="nonzero"/><path fill="#8e68e6" d="M 28.121094 11.238281 L 28.121094 10.476562 L 27.347656 10.476562 L 27.347656 11.996094 L 28.890625 11.996094 L 28.890625 11.238281 Z M 28.121094 11.238281 " fill-opacity="1" fill-rule="nonzero"/><path fill="#8e68e6" d="M 28.890625 11.996094 L 29.664062 11.996094 L 29.664062 12.753906 L 28.890625 12.753906 Z M 28.890625 11.996094 " fill-opacity="1" fill-rule="nonzero"/><path fill="#8e68e6" d="M 32.746094 13.511719 L 32.746094 12.753906 L 29.664062 12.753906 L 29.664062 13.511719 L 30.433594 13.511719 L 30.433594 14.273438 L 33.519531 14.273438 L 33.519531 13.511719 Z M 32.746094 13.511719 " fill-opacity="1" fill-rule="nonzero"/><path fill="#8e68e6" d="M 45.085938 16.546875 L 45.859375 16.546875 L 45.859375 15.03125 L 45.085938 15.03125 L 45.085938 15.789062 L 42.003906 15.789062 L 42.003906 16.546875 L 35.832031 16.546875 L 35.832031 17.308594 L 38.144531 17.308594 L 38.144531 18.066406 L 42.003906 18.066406 L 42.003906 17.308594 L 45.085938 17.308594 Z M 45.085938 16.546875 " fill-opacity="1" fill-rule="nonzero"/><path fill="#8e68e6" d="M 47.402344 17.308594 L 47.402344 16.546875 L 46.628906 16.546875 L 46.628906 18.066406 L 47.402344 18.066406 L 47.402344 18.824219 L 48.945312 18.824219 L 48.945312 17.308594 Z M 47.402344 17.308594 " fill-opacity="1" fill-rule="nonzero"/><path fill="#8e68e6" d="M 48.945312 18.824219 L 50.488281 18.824219 L 50.488281 19.582031 L 48.945312 19.582031 Z M 48.945312 18.824219 " fill-opacity="1" fill-rule="nonzero"/><path fill="#8e68e6" d="M 50.488281 19.582031 L 52.027344 19.582031 L 52.027344 20.34375 L 50.488281 20.34375 Z M 50.488281 19.582031 " fill-opacity="1" fill-rule="nonzero"/><g clip-path="url(#f7c400d668)"><path fill="#8e68e6" d="M 52.027344 18.824219 L 54.34375 18.824219 L 54.34375 19.582031 L 52.027344 19.582031 Z M 52.027344 18.824219 " fill-opacity="1" fill-rule="nonzero"/></g><path fill="#8e68e6" d="M 46.628906 18.824219 L 45.085938 18.824219 L 45.085938 19.582031 L 45.859375 19.582031 L 45.859375 20.34375 L 48.171875 20.34375 L 48.171875 19.582031 L 46.628906 19.582031 Z M 46.628906 18.824219 " fill-opacity="1" fill-rule="nonzero"/><path fill="#8e68e6" d="M 42.773438 18.066406 L 45.085938 18.066406 L 45.085938 18.824219 L 42.773438 18.824219 Z M 42.773438 18.066406 " fill-opacity="1" fill-rule="nonzero"/><path fill="#fb6ba2" d="M 24.265625 15.03125 L 24.265625 13.511719 L 23.492188 13.511719 L 23.492188 10.476562 L 21.949219 10.476562 L 21.949219 9.71875 L 22.722656 9.71875 L 22.722656 8.203125 L 21.949219 8.203125 L 21.949219 8.960938 L 21.179688 8.960938 L 21.179688 11.238281 L 21.949219 11.238281 L 21.949219 14.273438 L 22.722656 14.273438 L 22.722656 15.03125 L 23.492188 15.03125 L 23.492188 15.789062 L 25.035156 15.789062 L 25.035156 15.03125 Z M 24.265625 15.03125 " fill-opacity="1" fill-rule="nonzero"/><path fill="#fb6ba2" d="M 25.035156 15.789062 L 30.433594 15.789062 L 30.433594 16.546875 L 25.035156 16.546875 Z M 25.035156 15.789062 " fill-opacity="1" fill-rule="nonzero"/><path fill="#fb6ba2" d="M 24.265625 9.71875 L 24.265625 8.960938 L 23.492188 8.960938 L 23.492188 10.476562 L 24.265625 10.476562 Z M 24.265625 9.71875 " fill-opacity="1" fill-rule="nonzero"/><path fill="#fb6ba2" d="M 24.265625 8.203125 L 25.035156 8.203125 L 25.035156 8.960938 L 24.265625 8.960938 Z M 24.265625 8.203125 " fill-opacity="1" fill-rule="nonzero"/><path fill="#fb6ba2" d="M 30.433594 15.03125 L 31.207031 15.03125 L 31.207031 15.789062 L 30.433594 15.789062 Z M 30.433594 15.03125 " fill-opacity="1" fill-rule="nonzero"/><path fill="#fb6ba2" d="M 17.324219 16.546875 L 16.550781 16.546875 L 16.550781 18.066406 L 19.636719 18.066406 L 19.636719 17.308594 L 17.324219 17.308594 Z M 17.324219 16.546875 " fill-opacity="1" fill-rule="nonzero"/><path fill="#fb6ba2" d="M 8.839844 18.066406 L 8.066406 18.066406 L 8.066406 19.582031 L 10.382812 19.582031 L 10.382812 18.824219 L 8.839844 18.824219 Z M 8.839844 18.066406 " fill-opacity="1" fill-rule="nonzero"/><path fill="#fb6ba2" d="M 11.152344 18.824219 L 12.695312 18.824219 L 12.695312 19.582031 L 11.152344 19.582031 Z M 11.152344 18.824219 " fill-opacity="1" fill-rule="nonzero"/><g clip-path="url(#82fc2c85f7)"><path fill="#fb6ba2" d="M 29.664062 5.925781 L 30.433594 5.925781 L 30.433594 5.167969 L 28.890625 5.167969 L 28.890625 6.683594 L 29.664062 6.683594 Z M 29.664062 5.925781 " fill-opacity="1" fill-rule="nonzero"/></g><path fill="#fb6ba2" d="M 28.121094 9.71875 L 28.121094 7.441406 L 28.890625 7.441406 L 28.890625 6.683594 L 27.347656 6.683594 L 27.347656 10.476562 L 28.121094 10.476562 L 28.121094 11.238281 L 28.890625 11.238281 L 28.890625 9.71875 Z M 28.121094 9.71875 " fill-opacity="1" fill-rule="nonzero"/><path fill="#fb6ba2" d="M 28.890625 11.238281 L 29.664062 11.238281 L 29.664062 11.996094 L 28.890625 11.996094 Z M 28.890625 11.238281 " fill-opacity="1" fill-rule="nonzero"/><path fill="#fb6ba2" d="M 29.664062 11.996094 L 31.976562 11.996094 L 31.976562 12.753906 L 29.664062 12.753906 Z M 29.664062 11.996094 " fill-opacity="1" fill-rule="nonzero"/><path fill="#fb6ba2" d="M 28.890625 8.203125 L 29.664062 8.203125 L 29.664062 8.960938 L 28.890625 8.960938 Z M 28.890625 8.203125 " fill-opacity="1" fill-rule="nonzero"/><path fill="#fb6ba2" d="M 17.324219 15.03125 L 17.324219 14.273438 L 18.09375 14.273438 L 18.09375 13.511719 L 16.550781 13.511719 L 16.550781 14.273438 L 15.78125 14.273438 L 15.78125 16.546875 L 16.550781 16.546875 L 16.550781 15.03125 Z M 17.324219 15.03125 " fill-opacity="1" fill-rule="nonzero"/><path fill="#fb6ba2" d="M 20.40625 15.789062 L 19.636719 15.789062 L 19.636719 17.308594 L 21.179688 17.308594 L 21.179688 16.546875 L 20.40625 16.546875 Z M 20.40625 15.789062 " fill-opacity="1" fill-rule="nonzero"/><path fill="#fb6ba2" d="M 18.867188 14.273438 L 19.636719 14.273438 L 19.636719 15.789062 L 18.867188 15.789062 Z M 18.867188 14.273438 " fill-opacity="1" fill-rule="nonzero"/><path fill="#fb6ba2" d="M 31.976562 8.960938 L 32.746094 8.960938 L 32.746094 11.238281 L 31.976562 11.238281 Z M 31.976562 8.960938 " fill-opacity="1" fill-rule="nonzero"/><path fill="#fb6ba2" d="M 32.746094 11.238281 L 33.519531 11.238281 L 33.519531 12.753906 L 32.746094 12.753906 Z M 32.746094 11.238281 " fill-opacity="1" fill-rule="nonzero"/><path fill="#fb6ba2" d="M 33.519531 12.753906 L 35.0625 12.753906 L 35.0625 13.511719 L 33.519531 13.511719 Z M 33.519531 12.753906 " fill-opacity="1" fill-rule="nonzero"/><path fill="#fb6ba2" d="M 35.0625 13.511719 L 36.605469 13.511719 L 36.605469 14.273438 L 35.0625 14.273438 Z M 35.0625 13.511719 " fill-opacity="1" fill-rule="nonzero"/><path fill="#fb6ba2" d="M 43.546875 15.03125 L 40.460938 15.03125 L 40.460938 15.789062 L 36.605469 15.789062 L 36.605469 15.03125 L 35.0625 15.03125 L 35.0625 14.273438 L 34.289062 14.273438 L 34.289062 15.789062 L 35.832031 15.789062 L 35.832031 16.546875 L 42.003906 16.546875 L 42.003906 15.789062 L 45.085938 15.789062 L 45.085938 14.273438 L 43.546875 14.273438 Z M 43.546875 15.03125 " fill-opacity="1" fill-rule="nonzero"/><path fill="#fb6ba2" d="M 36.605469 12.753906 L 38.144531 12.753906 L 38.144531 13.511719 L 36.605469 13.511719 Z M 36.605469 12.753906 " fill-opacity="1" fill-rule="nonzero"/><path fill="#fb6ba2" d="M 38.144531 11.996094 L 38.917969 11.996094 L 38.917969 12.753906 L 38.144531 12.753906 Z M 38.144531 11.996094 " fill-opacity="1" fill-rule="nonzero"/><path fill="#fb6ba2" d="M 48.171875 16.546875 L 48.171875 15.789062 L 47.402344 15.789062 L 47.402344 17.308594 L 48.945312 17.308594 L 48.945312 16.546875 Z M 48.171875 16.546875 " fill-opacity="1" fill-rule="nonzero"/><path fill="#fb6ba2" d="M 49.714844 18.066406 L 49.714844 17.308594 L 48.945312 17.308594 L 48.945312 18.824219 L 50.488281 18.824219 L 50.488281 18.066406 Z M 49.714844 18.066406 " fill-opacity="1" fill-rule="nonzero"/><path fill="#fb6ba2" d="M 50.488281 18.824219 L 52.027344 18.824219 L 52.027344 19.582031 L 50.488281 19.582031 Z M 50.488281 18.824219 " fill-opacity="1" fill-rule="nonzero"/><g clip-path="url(#8a852f08ea)"><path fill="#fb6ba2" d="M 53.570312 18.066406 L 53.570312 17.308594 L 52.800781 17.308594 L 52.800781 18.066406 L 52.027344 18.066406 L 52.027344 18.824219 L 54.34375 18.824219 L 54.34375 18.066406 Z M 53.570312 18.066406 " fill-opacity="1" fill-rule="nonzero"/></g><path fill="#fb6ba2" d="M 27.347656 12.753906 L 28.121094 12.753906 L 28.121094 13.511719 L 27.347656 13.511719 Z M 27.347656 12.753906 " fill-opacity="1" fill-rule="nonzero"/><path fill="#fb6ba2" d="M 28.121094 13.511719 L 28.890625 13.511719 L 28.890625 14.273438 L 28.121094 14.273438 Z M 28.121094 13.511719 " fill-opacity="1" fill-rule="nonzero"/><path fill="#fb6ba2" d="M 28.890625 14.273438 L 30.433594 14.273438 L 30.433594 15.03125 L 28.890625 15.03125 Z M 28.890625 14.273438 " fill-opacity="1" fill-rule="nonzero"/><path fill="#ffe14d" d="M 30.433594 6.683594 L 31.976562 6.683594 L 31.976562 7.441406 L 30.433594 7.441406 Z M 30.433594 6.683594 " fill-opacity="1" fill-rule="nonzero"/><g clip-path="url(#8c1287958e)"><path fill="#ffe14d" d="M 31.976562 5.925781 L 32.746094 5.925781 L 32.746094 6.683594 L 31.976562 6.683594 Z M 31.976562 5.925781 " fill-opacity="1" fill-rule="nonzero"/></g><path fill="#ffe14d" d="M 32.746094 6.683594 L 33.519531 6.683594 L 33.519531 7.441406 L 32.746094 7.441406 Z M 32.746094 6.683594 " fill-opacity="1" fill-rule="nonzero"/><path fill="#ffe14d" d="M 35.0625 7.441406 L 36.605469 7.441406 L 36.605469 8.203125 L 35.0625 8.203125 Z M 35.0625 7.441406 " fill-opacity="1" fill-rule="nonzero"/><path fill="#ffe14d" d="M 34.289062 8.960938 L 35.832031 8.960938 L 35.832031 9.71875 L 34.289062 9.71875 Z M 34.289062 8.960938 " fill-opacity="1" fill-rule="nonzero"/><path fill="#ffe14d" d="M 35.832031 10.476562 L 36.605469 10.476562 L 36.605469 11.238281 L 35.832031 11.238281 Z M 35.832031 10.476562 " fill-opacity="1" fill-rule="nonzero"/><path fill="#ffe14d" d="M 24.265625 6.683594 L 26.578125 6.683594 L 26.578125 7.441406 L 24.265625 7.441406 Z M 24.265625 6.683594 " fill-opacity="1" fill-rule="nonzero"/><g clip-path="url(#4584ea8b35)"><path fill="#ffe14d" d="M 30.433594 5.167969 L 31.976562 5.167969 L 31.976562 5.925781 L 30.433594 5.925781 Z M 30.433594 5.167969 " fill-opacity="1" fill-rule="nonzero"/></g><path fill="#ffe14d" d="M 36.605469 8.203125 L 37.375 8.203125 L 37.375 8.960938 L 36.605469 8.960938 Z M 36.605469 8.203125 " fill-opacity="1" fill-rule="nonzero"/><path fill="#ffe14d" d="M 38.144531 9.71875 L 38.917969 9.71875 L 38.917969 10.476562 L 38.144531 10.476562 Z M 38.144531 9.71875 " fill-opacity="1" fill-rule="nonzero"/><path fill="#ffe14d" d="M 49.714844 15.789062 L 51.257812 15.789062 L 51.257812 16.546875 L 49.714844 16.546875 Z M 49.714844 15.789062 " fill-opacity="1" fill-rule="nonzero"/><path fill="#ffe14d" d="M 51.257812 16.546875 L 52.800781 16.546875 L 52.800781 17.308594 L 51.257812 17.308594 Z M 51.257812 16.546875 " fill-opacity="1" fill-rule="nonzero"/><path fill="#ffe14d" d="M 38.917969 11.238281 L 39.6875 11.238281 L 39.6875 12.753906 L 38.917969 12.753906 Z M 38.917969 11.238281 " fill-opacity="1" fill-rule="nonzero"/><path fill="#ffe14d" d="M 39.6875 12.753906 L 42.003906 12.753906 L 42.003906 13.511719 L 39.6875 13.511719 Z M 39.6875 12.753906 " fill-opacity="1" fill-rule="nonzero"/><path fill="#ffe14d" d="M 42.773438 13.511719 L 43.546875 13.511719 L 43.546875 14.273438 L 42.773438 14.273438 Z M 42.773438 13.511719 " fill-opacity="1" fill-rule="nonzero"/><path fill="#ffe14d" d="M 38.917969 13.511719 L 39.6875 13.511719 L 39.6875 14.273438 L 38.917969 14.273438 Z M 38.917969 13.511719 " fill-opacity="1" fill-rule="nonzero"/><path fill="#ffe14d" d="M 33.519531 9.71875 L 34.289062 9.71875 L 34.289062 10.476562 L 33.519531 10.476562 Z M 33.519531 9.71875 " fill-opacity="1" fill-rule="nonzero"/></svg>