<svg xmlns="http://www.w3.org/2000/svg" xmlns:xlink="http://www.w3.org/1999/xlink" width="80" zoomAndPan="magnify" viewBox="0 0 60 30.000001" height="40" preserveAspectRatio="xMidYMid meet" version="1.0"><defs><clipPath id="442012cbec"><path d="M 16.320312 1.082031 L 43.898438 1.082031 L 43.898438 27.9375 L 16.320312 27.9375 Z M 16.320312 1.082031 " clip-rule="nonzero"/></clipPath><clipPath id="bab06d4c6f"><path d="M 16.320312 1.082031 L 43.898438 1.082031 L 43.898438 27.9375 L 16.320312 27.9375 Z M 16.320312 1.082031 " clip-rule="nonzero"/></clipPath></defs><g clip-path="url(#442012cbec)"><path fill="#f6f6ee" d="M 42.910156 4.011719 L 42.417969 4.84375 L 42.664062 11.09375 L 42.519531 25.121094 L 41.929688 26.472656 L 40.28125 27.203125 L 21.214844 27.691406 L 18.785156 26.472656 L 18.292969 26.097656 L 18.046875 19.511719 L 18.046875 8.652344 L 18.292969 6.621094 L 17.308594 4.011719 L 16.683594 3.121094 L 17.0625 1.816406 L 22.972656 2.0625 L 23.648438 3.28125 L 24.695312 6.070312 L 35.527344 5.964844 L 36.164062 4.746094 L 37.078125 1.816406 L 42.910156 1.816406 L 43.484375 2.945312 Z M 42.910156 4.011719 " fill-opacity="1" fill-rule="nonzero"/></g><path fill="#d0d0d0" d="M 22.234375 10.851562 L 22.726562 10.851562 L 22.726562 13.289062 L 21.742188 13.289062 L 21.742188 10.851562 Z M 22.234375 10.363281 L 21.742188 10.363281 L 21.742188 10.851562 L 22.726562 10.851562 L 22.726562 10.363281 Z M 22.234375 14.269531 L 21.742188 14.269531 L 21.742188 15.734375 L 22.726562 15.734375 L 22.726562 14.269531 Z M 22.234375 9.871094 L 21.742188 9.871094 L 21.742188 10.359375 L 22.726562 10.359375 L 22.726562 9.871094 Z M 22.234375 8.894531 L 21.742188 8.894531 L 21.742188 9.871094 L 22.726562 9.871094 L 22.726562 8.894531 Z M 22.234375 8.894531 " fill-opacity="1" fill-rule="nonzero"/><g clip-path="url(#bab06d4c6f)"><path fill="#090d0f" d="M 32.082031 13.777344 L 32.082031 11.824219 L 32.574219 11.824219 L 32.574219 13.777344 Z M 31.097656 11.824219 L 32.082031 11.824219 L 32.082031 11.335938 L 31.097656 11.335938 L 31.097656 10.359375 L 30.605469 10.359375 L 30.605469 13.777344 L 31.097656 13.777344 Z M 33.558594 10.847656 L 33.066406 10.847656 L 33.066406 11.335938 L 33.558594 11.335938 Z M 33.558594 11.824219 L 33.066406 11.824219 L 33.066406 13.777344 L 33.558594 13.777344 Z M 37.003906 12.3125 L 37.003906 10.359375 L 36.511719 10.359375 L 36.511719 13.777344 L 37.003906 13.777344 L 37.003906 12.800781 L 37.496094 12.800781 L 37.496094 12.3125 Z M 37.988281 12.800781 L 37.496094 12.800781 L 37.496094 13.289062 L 37.988281 13.289062 L 37.988281 13.777344 L 38.480469 13.777344 L 38.480469 13.289062 L 37.988281 13.289062 Z M 37.988281 11.824219 L 38.472656 11.824219 L 38.472656 11.335938 L 37.980469 11.335938 L 37.980469 11.824219 L 37.496094 11.824219 L 37.496094 12.3125 L 37.988281 12.3125 Z M 35.035156 11.335938 L 34.050781 11.335938 L 34.050781 13.777344 L 34.542969 13.777344 L 34.542969 11.824219 L 35.527344 11.824219 L 35.527344 11.335938 Z M 35.527344 13.777344 L 36.019531 13.777344 L 36.019531 11.824219 L 35.527344 11.824219 Z M 29.621094 13.777344 L 30.113281 13.777344 L 30.113281 13.289062 L 29.125 13.289062 L 29.125 13.777344 Z M 28.632812 13.289062 L 29.125 13.289062 L 29.125 11.824219 L 30.113281 11.824219 L 30.113281 11.335938 L 29.125 11.335938 L 29.125 10.359375 L 28.632812 10.359375 L 28.632812 11.335938 L 28.144531 11.335938 L 28.144531 11.824219 L 28.632812 11.824219 Z M 40.449219 16.21875 L 40.449219 15.730469 L 39.460938 15.730469 L 39.460938 16.21875 Z M 40.449219 16.707031 L 39.460938 16.707031 L 39.460938 16.21875 L 38.96875 16.21875 L 38.96875 17.683594 L 39.460938 17.683594 L 39.460938 17.195312 L 40.941406 17.195312 L 40.941406 16.21875 L 40.449219 16.21875 Z M 39.957031 18.171875 L 40.449219 18.171875 L 40.449219 17.683594 L 39.460938 17.683594 L 39.460938 18.171875 Z M 37.988281 15.730469 L 37.003906 15.730469 L 37.003906 16.21875 L 37.988281 16.21875 L 37.988281 17.683594 L 37.003906 17.683594 L 37.003906 18.171875 L 38.480469 18.171875 L 38.480469 14.753906 L 37.988281 14.753906 Z M 37.003906 16.707031 L 37.003906 16.21875 L 36.511719 16.21875 L 36.511719 17.683594 L 37.003906 17.683594 Z M 35.527344 15.730469 L 36.019531 15.730469 L 36.019531 15.242188 L 35.527344 15.242188 Z M 35.527344 18.171875 L 36.019531 18.171875 L 36.019531 16.21875 L 35.527344 16.21875 Z M 26.171875 17.195312 L 26.171875 16.21875 L 25.679688 16.21875 L 25.679688 17.683594 L 26.171875 17.683594 Z M 27.15625 16.21875 L 27.15625 15.730469 L 26.171875 15.730469 L 26.171875 16.21875 Z M 27.15625 17.195312 L 27.15625 17.683594 L 27.648438 17.683594 L 27.648438 16.21875 L 27.15625 16.21875 Z M 26.171875 17.683594 L 26.171875 18.171875 L 27.15625 18.171875 L 27.15625 17.683594 Z M 31.09375 17.683594 L 31.585938 17.683594 L 31.585938 16.21875 L 32.574219 16.21875 L 32.574219 15.730469 L 31.585938 15.730469 L 31.585938 14.753906 L 31.09375 14.753906 L 31.09375 15.730469 L 30.601562 15.730469 L 30.601562 16.21875 L 31.09375 16.21875 Z M 32.078125 18.171875 L 32.574219 18.171875 L 32.574219 17.683594 L 31.585938 17.683594 L 31.585938 18.171875 Z M 33.550781 16.21875 L 33.058594 16.21875 L 33.058594 16.707031 L 33.550781 16.707031 Z M 34.054688 16.21875 L 35.035156 16.21875 L 35.035156 15.730469 L 33.5625 15.730469 L 33.5625 16.21875 Z M 34.542969 18.171875 L 34.542969 17.683594 L 35.027344 17.683594 L 35.027344 17.195312 L 34.542969 17.195312 L 34.542969 16.707031 L 33.558594 16.707031 L 33.558594 17.195312 L 34.535156 17.195312 L 34.535156 17.683594 L 33.066406 17.683594 L 33.066406 18.171875 Z M 28.632812 17.195312 L 28.632812 15.730469 L 28.140625 15.730469 L 28.140625 17.683594 L 28.632812 17.683594 Z M 29.125 18.171875 L 30.109375 18.171875 L 30.109375 15.730469 L 29.617188 15.730469 L 29.617188 17.683594 L 28.632812 17.683594 L 28.632812 18.171875 Z M 43.894531 1.082031 L 43.894531 4.011719 L 42.910156 4.011719 L 42.910156 11.339844 L 43.402344 11.339844 L 43.402344 12.804688 L 42.910156 12.804688 L 42.910156 26.472656 L 41.929688 26.472656 L 41.929688 27.9375 L 18.789062 27.9375 L 18.789062 26.472656 L 17.800781 26.472656 L 17.800781 9.382812 L 17.308594 9.382812 L 17.308594 7.917969 L 17.800781 7.917969 L 17.800781 5.480469 L 17.308594 5.480469 L 17.308594 4.015625 L 16.324219 4.015625 L 16.324219 1.082031 L 23.710938 1.082031 L 23.710938 3.035156 L 24.695312 3.035156 L 24.695312 5.480469 L 35.523438 5.480469 L 35.523438 4.015625 L 36.015625 4.015625 L 36.015625 2.550781 L 36.507812 2.550781 L 36.507812 1.082031 Z M 17.800781 4.011719 L 18.292969 4.011719 L 18.292969 5.476562 L 23.710938 5.476562 L 23.710938 4.011719 L 22.726562 4.011719 L 22.726562 2.546875 L 17.308594 2.546875 L 17.308594 4.011719 Z M 23.710938 6.941406 L 18.789062 6.941406 L 18.789062 7.917969 L 18.292969 7.917969 L 18.292969 9.382812 L 18.789062 9.382812 L 18.789062 26.472656 L 23.710938 26.472656 L 23.710938 22.078125 L 23.21875 22.078125 L 23.21875 20.613281 L 23.710938 20.613281 Z M 42.417969 11.335938 L 41.925781 11.335938 L 41.925781 6.941406 L 24.695312 6.941406 L 24.695312 20.613281 L 24.203125 20.613281 L 24.203125 22.078125 L 24.695312 22.078125 L 24.695312 26.472656 L 41.925781 26.472656 L 41.925781 12.800781 L 42.417969 12.800781 Z M 42.910156 2.546875 L 37.492188 2.546875 L 37.492188 4.011719 L 36.507812 4.011719 L 36.507812 5.476562 L 41.925781 5.476562 L 41.925781 4.011719 L 42.910156 4.011719 Z M 35.277344 21.589844 L 35.277344 22.566406 L 35.769531 22.566406 L 35.769531 21.101562 L 35.277344 21.101562 Z M 34.292969 22.566406 L 34.292969 21.101562 L 35.277344 21.101562 L 35.277344 20.613281 L 34.292969 20.613281 L 34.292969 19.636719 L 33.800781 19.636719 L 33.800781 23.054688 L 35.277344 23.054688 L 35.277344 22.566406 Z M 32.324219 21.589844 L 31.335938 21.589844 L 31.335938 21.101562 L 30.84375 21.101562 L 30.84375 22.566406 L 31.335938 22.566406 L 31.335938 22.078125 L 32.816406 22.078125 L 32.816406 21.101562 L 32.324219 21.101562 Z M 32.324219 21.101562 L 32.324219 20.613281 L 31.335938 20.613281 L 31.335938 21.101562 Z M 31.832031 23.054688 L 32.324219 23.054688 L 32.324219 22.566406 L 31.335938 22.566406 L 31.335938 23.054688 Z M 29.371094 20.613281 L 28.878906 20.613281 L 28.878906 19.636719 L 28.386719 19.636719 L 28.386719 23.054688 L 28.878906 23.054688 L 28.878906 21.101562 L 29.863281 21.101562 L 29.863281 20.613281 Z M 29.863281 23.054688 L 30.355469 23.054688 L 30.355469 21.101562 L 29.863281 21.101562 Z M 36.757812 21.589844 L 36.757812 21.101562 L 36.265625 21.101562 L 36.265625 22.566406 L 36.757812 22.566406 Z M 37.742188 21.101562 L 37.742188 20.613281 L 36.757812 20.613281 L 36.757812 21.101562 Z M 37.742188 21.589844 L 37.742188 22.566406 L 38.234375 22.566406 L 38.234375 21.101562 L 37.742188 21.101562 Z M 36.757812 22.566406 L 36.757812 23.054688 L 37.742188 23.054688 L 37.742188 22.566406 Z M 26.910156 20.613281 L 26.910156 19.636719 L 26.417969 19.636719 L 26.417969 20.613281 L 25.925781 20.613281 L 25.925781 21.101562 L 26.417969 21.101562 L 26.417969 22.566406 L 26.910156 22.566406 L 26.910156 21.101562 L 27.894531 21.101562 L 27.894531 20.613281 Z M 27.402344 23.054688 L 27.894531 23.054688 L 27.894531 22.566406 L 26.910156 22.566406 L 26.910156 23.054688 Z M 40.203125 21.101562 L 40.203125 21.589844 L 40.699219 21.589844 L 40.699219 20.613281 L 40.203125 20.613281 Z M 39.234375 21.589844 L 39.234375 20.613281 L 38.742188 20.613281 L 38.742188 21.589844 L 39.21875 21.589844 L 39.21875 22.078125 L 38.742188 22.078125 L 38.742188 23.054688 L 39.234375 23.054688 L 39.234375 22.078125 L 40.203125 22.078125 L 40.203125 21.589844 Z M 40.203125 23.054688 L 40.699219 23.054688 L 40.699219 22.078125 L 40.203125 22.078125 Z M 40.203125 23.054688 " fill-opacity="1" fill-rule="nonzero"/></g></svg>